<svg width="151" height="140" fill="none" xmlns="http://www.w3.org/2000/svg"><path d="M82.328 12.81c2.456 4.435 3.235 7.882 2.775 12.29-.379 3.56-.579 4.449-3.414 14.673-1.557 5.585-2.116 9.97-1.617 12.779.559 3.143 2.316 6.084 4.772 7.983 1.178.918 3.514 2.148 3.913 2.074.08-.014-.24-.523-.699-1.108-2.675-3.522-3.793-8.346-3.194-13.794.34-2.964.818-5.326 2.216-10.982 1.997-8 2.476-11.416 2.017-14.557-.56-3.752-2.237-6.505-5.231-8.567-1.298-.896-1.718-1.103-1.538-.79Zm-8.785 10.74c1.817 3.457 2.037 4.45 1.897 8.454-.14 3.455-.439 5.134-2.216 12.342-1.657 6.658-1.996 8.689-1.857 11.037.1 1.686.62 3.619 1.238 4.742.879 1.562 2.895 3.298 4.932 4.22.479.215.4.067-.5-1.126-1.177-1.547-1.657-2.757-1.956-4.974-.4-2.847.12-6.21 2.136-13.767 1.777-6.64 2.137-8.533 2.137-11.475.02-3.717-.74-5.727-2.935-7.633-1.099-.973-3.095-2.227-2.876-1.82Zm-7.228 11.198c.799 1.598 1.078 3.555.819 5.611-.32 2.352-.699 3.742-2.256 8.312-.779 2.254-1.618 5.007-1.877 6.11-.879 3.653-.56 6.698.898 8.761.66.893 2.416 2.373 3.594 3.007.719.374.679.24-.1-.692-1.597-1.875-2.036-4.715-1.317-8.379.22-1.096 1.138-4.249 2.036-6.972.899-2.743 1.817-5.876 2.037-6.972.898-4.509-.1-7.428-3.155-9.337-.579-.36-1.078-.633-1.138-.621-.06.01.14.542.46 1.172Zm-11.36 37.494c-.24.349-.419.808-.419 1.051.02 1.113 1.977 3.753 4.313 5.796 4.392 3.873 10.542 5.37 17.05 4.164 6.47-1.199 12.18-4.671 16.792-10.193 2.057-2.471 4.273-6.088 4.492-7.285.1-.546.04-.84-.259-1.19l-.4-.474-20.584 3.754-20.565 3.772-.42.605ZM28.738 98.67c-.959.584-1.039.842-.5 1.574.72.942 1.638 1.279 2.876 1.05 1.397-.259 2.356-.903 2.994-1.996.62-1.068.52-1.395-.499-1.53-.718-.07-.818-.031-1.297.544-.7.82-1.458.96-2.237.354-.599-.457-.599-.457-1.337.005Zm82.96-14.97c-.519.583-.859.768-1.997 1.08-2.096.592-3.294 1.24-4.352 2.39-2.217 2.4-3.115 7.03-1.977 10.167.459 1.274 2.036 2.585 3.354 2.787 1.577.255 3.374-.18 4.832-1.14 2.156-1.434 3.274-3.508 3.274-6.044 0-2.861-1.697-4.535-4.552-4.513-1.497.014-3.035.583-3.973 1.487-.799.757-.859.504-.14-.502.779-1.077 1.577-1.55 3.534-2.095 2.097-.592 3.294-1.3 4.013-2.387.699-1.084.659-1.421-.279-1.734-.979-.326-.979-.326-1.737.504Zm-.719 7.377c1.837 1.06 1.897 3.768.12 5.477-1.498 1.434-4.073 1.506-5.032.12-1.537-2.23.26-5.424 3.235-5.773.739-.076 1.338-.025 1.677.176ZM16.1 105.355c-1.338.715-2.017 1.266-2.875 2.42-2.077 2.799-1.797 6.968.579 8.516 1.218.809 2.635.952 4.612.505 1.477-.335 1.937-.542 3.095-1.365 1.597-1.108 1.757-1.503.938-2.345l-.559-.546-1.198.851c-1.078.768-1.338.857-2.735 1.055-1.697.254-2.296.04-3.115-1.026l-.46-.605 4.653-.963 4.652-.964-.02-1.416c-.02-3.264-2.196-5.133-5.47-4.688-.74.096-1.638.344-2.097.571Zm3.793 2.077c.64.287 1.458 1.272 1.238 1.515-.04.068-1.577.353-3.414.674l-3.334.557.459-.796c.699-1.184 1.997-2.054 3.314-2.156.58-.067 1.358.032 1.737.206Zm33.484-8.884c-2.656 1.466-4.233 4.274-3.973 7.067.36 4.133 4.292 5.697 8.705 3.479 1.158-.58 2.615-1.763 2.615-2.108 0-.081-.299-.452-.658-.811l-.68-.666-.578.534c-.859.768-1.797 1.205-3.115 1.45-1.438.266-2.296.08-3.015-.639-.998-1.032-1.018-1.028 4.013-2.022l4.533-.901.06-1.147c.08-1.374-.46-2.898-1.358-3.827-1.358-1.432-4.353-1.608-6.549-.41Zm3.953 1.844c.54.184 1.398 1.1 1.398 1.506 0 .102-1.538.447-3.394.791l-3.415.633.3-.623c.858-1.844 3.274-2.94 5.111-2.307Zm10.223-4.554c-.46.248-1.078.646-1.358.88-.28.235-.519.401-.539.364-.4-.717-.519-.776-1.358-.62l-.878.162v15.016l1.198-.222 1.198-.222.06-2c.02-1.079.08-1.983.12-1.99.04-.008.359.095.738.208.839.27 3.195-.004 4.313-.516 2.376-1.089 4.073-3.717 4.113-6.382.04-3.62-2.136-5.692-5.55-5.262-.68.085-1.558.33-2.057.584Zm2.795 1.836c.879.1 1.857.995 2.176 2.011.28.922.1 2.315-.419 3.284-.779 1.483-3.055 2.453-4.732 2.054-1.417-.346-1.457-.44-1.457-3.099 0-2.333.02-2.418.499-2.831 1.238-1.041 2.595-1.537 3.933-1.42Zm61.736-13.796c-.459.227-1.038.618-1.298.849-.619.54-.739.543-.818.01-.06-.375-.18-.413-1.059-.25l-.998.184v15.015l1.198-.222 1.198-.221.06-2c.02-1.08.08-1.983.12-1.99.04-.008.499.11 1.018.237.799.217 1.238.197 2.576-.133 2.495-.604 4.073-1.89 5.051-4.101.739-1.7.779-4 .08-5.493-1.158-2.444-4.353-3.272-7.128-1.885Zm3.614 2.09c1.398.633 1.897 2.813 1.058 4.673-.639 1.356-1.318 1.928-2.735 2.293-1.298.342-2.316.267-3.095-.218-.499-.313-.519-.39-.519-2.724v-2.395l.719-.6c1.417-1.155 3.334-1.591 4.572-1.03Z" fill="#fff"/><path d="M.967 108.219c-.26.312-.16 11.373.1 11.588.14.116.599.133 1.058.048.46-.085.919-.272 1.058-.44.16-.192.24-.978.24-2.195 0-1.725.04-1.956.46-2.378.239-.247.538-.465.658-.508.12-.022.998.809 1.957 1.87.958 1.039 1.936 2.015 2.176 2.133.54.285 2.855-.104 2.995-.515.04-.129-1.118-1.436-2.616-2.883l-2.675-2.629 2.516-2.881c1.377-1.595 2.515-2.983 2.515-3.084 0-.101-.698-.053-1.557.106l-1.537.285-2.396 2.879-2.396 2.879-.1-2.356-.1-2.376-1.098.143c-.619.074-1.178.218-1.258.314Zm24.937-4.437c-.06.194-.12 2.802-.12 5.785 0 3.936.06 5.467.24 5.617.4.331 2.076-.081 2.515-.629.36-.452 2.576-4.008 4.593-7.324l1.038-1.694.04 4.132.06 4.128.918-.109c.6-.07.998-.226 1.158-.438.16-.253.22-1.867.18-5.978l-.06-5.65-1.098.142c-.6.091-1.198.243-1.298.342-.26.251-3.753 5.708-4.872 7.599-.459.795-.858 1.438-.878 1.441-.02.004-.04-1.798-.04-3.99v-4.017l-1.118.146c-.899.126-1.158.215-1.258.497Zm12.338-2.308c-.06.153-.08.684-.04 1.164l.06.882 1.957-.302 1.937-.298v4.504c0 3.247.06 4.575.24 4.724.139.117.598.133 1.057.048.46-.085.919-.272 1.059-.44.18-.216.24-1.566.24-4.813v-4.504l1.956-.424 1.937-.419v-2.233l-5.152.894c-4.252.748-5.15.955-5.25 1.217Zm39.173-7.241c-.06.193-.12 2.802-.12 5.784 0 3.937.06 5.468.24 5.617.26.216 1.936-.034 2.256-.337.34-.306 1.377-1.899 3.693-5.696l2.197-3.613v4.058c0 4.484-.04 4.329 1.258 4.089 1.178-.219 1.158-.053 1.098-6.311l-.06-5.752-1.138.15-1.138.15-.919 1.347c-.499.742-1.697 2.628-2.655 4.186-.959 1.537-1.877 3.026-2.037 3.279-.26.393-.3.035-.3-3.577v-4.018l-1.117.147c-.899.126-1.159.214-1.258.497Zm13.599-2.703c-.26.312-.16 11.372.1 11.588.14.116.599.133 1.058.047.46-.085.919-.271 1.058-.439.16-.192.24-1.059.24-2.581v-2.293l2.596-.48 2.595-.482v2.415c0 2.678 0 2.658 1.378 2.402.399-.074.838-.256.978-.424.379-.456.339-11.243-.04-11.498-.16-.112-.719-.09-1.258.05l-.958.24-.06 2.181-.06 2.203-2.576.477-2.575.478-.06-2.18-.06-2.16-1.098.142c-.619.074-1.178.218-1.258.314Zm23.877-4.1c.08.249 1.158 2.525 2.436 5.068 1.258 2.546 2.296 4.768 2.296 4.951 0 .69-.519 1.212-1.517 1.499l-.978.303-.06.883c-.04.495.04 1.008.179 1.144.619.636 3.175-.588 3.994-1.917.519-.827 5.57-14.221 5.43-14.398-.04-.094-.658-.04-1.337.085l-1.278.237-1.138 3.498a227.328 227.328 0 0 1-1.518 4.502l-.339.976-.439-.933c-.22-.528-1.019-2.246-1.757-3.834l-1.338-2.897-1.378.194c-1.337.187-1.357.211-1.258.639Zm26.838-5.3c-.079.096-.139 2.745-.139 5.91 0 6.352-.08 5.98 1.377 5.71.4-.073.839-.256.979-.424.179-.216.239-1.566.239-4.813V84.01l3.155-.646 3.135-.642V80.49l-4.313.739c-2.356.416-4.353.827-4.433.902ZM75.84 113.051c-.538.688-.398 1.19.42 1.566l.739.35-.6.314c-.338.184-.957.624-1.397 1.01-1.118.978-1.637 1.216-2.016.901-.42-.369-1.218-.18-1.478.335-.24.511-.06 1.045.32.975.36-.066.36.38 0 1.319-.3.766-.979 1.399-1.418 1.298-.778-.16-.46-2.553.52-3.708.498-.6.658-.691 1.297-.687.639.003.719-.052.639-.362-.04-.196-.32-.448-.639-.531-.48-.155-.679-.118-1.458.331-.698.414-1.038.781-1.517 1.62-.499.925-.699 1.124-1.198 1.217-.46.085-.559.042-.46-.26.08-.198.2-.768.26-1.266.12-.874.1-.891-.459-.787-.978.181-1.976 1.381-1.258 1.491.28.05-.499 3.299-.858 3.588-.4.338-1.158.438-1.158.134 0-.122.22-1.177.479-2.321.56-2.437.579-2.4-1.657-2.189-1.637.141-2.416.631-2.416 1.483 0 .568.12.586.918.134.3-.177.58-.29.62-.236.16.132-1.159 3.339-1.538 3.754-.38.416-.4.419-.4-.007 0-.365-.1-.428-.538-.285-.6.171-.8.736-.56 1.625.1.387.22.446.74.289.878-.244 1.756-1.624 2.495-3.871.3-.949.679-1.749.819-1.775.32-.059.3.167-.16 2.058-.46 1.851-.5 2.548-.16 2.83.34.282 1.578.012 2.116-.473.38-.334.44-.345.44-.102 0 .386.38.457.898.178.28-.153.5-.599.719-1.472.26-1.042.4-1.291.938-1.615l.62-.378-.12.692c-.14.979.359 2.003 1.078 2.113 1.317.223 3.234-1.533 3.713-3.407.14-.554.36-.939.6-1.065.279-.113.339-.083.22.203-.06.194-.18.845-.22 1.42-.08.888-.04 1.104.359 1.496.459.422.799.481 1.717.25.639-.159 1.777-1.648 2.136-2.81.52-1.598.42-2.757-.28-3.601-.339-.404-.698-.723-.798-.704-.12.022-.2-.044-.2-.146 0-.081.44-.162.999-.144 1.198.021 1.996-.512 1.996-1.344 0-.508-.02-.504-1.757-.182-1.457.27-1.837.401-2.096.754Zm1.658 3.649c0 .487-.2 1.296-.44 1.847-.399.845-.558 1.017-1.057 1.109-.48.089-.62.014-.66-.385-.179-1.224.8-3.191 1.698-3.358.4-.074.46.016.46.787Zm-51.454 7.873c-.48.332-.859.706-.859.869 0 .324.52.289.7-.049.199-.361 1.037-.415 1.177-.096.16.396-.32 1.033-1.338 1.81-.938.722-1.417 1.622-1.238 2.421.3 1.284 2.157 1.264 3.614-.041l.839-.764.4.494c.798.928 2.156.473 3.394-1.116.519-.684.918-1.428 1.058-2.042.24-1.019 1.417-2.556 1.537-1.99.02.159-.4 2.245-.958 4.622-.54 2.392-.999 4.466-.999 4.588 0 .405 1.158.11 1.358-.353.12-.205.4-1.312.639-2.432.42-1.944.46-2.033.878-1.948.26.053.74-.076 1.218-.348 2.037-1.067 3.395-4.849 2.157-6-.4-.372-1.418-.224-1.997.309-.38.334-.44.346-.539.1-.22-.527-1.218-.119-2.236.922-1.038 1.065-1.178 1.152-1.378.864-.18-.251-.958-.086-1.258.274-.34.408-.3 1.009.06 1.084.5.111.36 1.172-.28 2-.778 1.017-1.297.87-1.377-.374-.12-1.661 1.078-3.446 2.236-3.356.28.009.54-.08.62-.237.239-.45-.42-.774-1.279-.656-1.357.232-2.535 1.668-3.134 3.848-.26.982-.42 1.214-1.118 1.709-.999.692-1.837.787-1.917.193-.04-.277.12-.57.48-.901 2.036-1.757 2.595-3.139 1.556-3.778-.659-.406-.958-.35-2.016.374Zm12.279-1.039c.32.266.3 1.183-.06 2.142-.46 1.181-.878 1.644-1.617 1.781l-.64.118.38-1.653c.48-2.016 1.238-2.968 1.937-2.388Zm4.293-2.073c-.958.624-1.258 1.146-1.258 2.161 0 .507.14.786.48 1.007l.479.276-.4.723c-.459.836-.758.973-.758.364 0-.324-.1-.387-.54-.245-.519.157-.559.226-.559 1.078 0 .852.04.905.58.866.658-.041 1.317-.711 1.976-1.989.58-1.163.859-1.133.779.058-.08 1.111.22 1.461 1.078 1.302.659-.122 1.557-.958 1.637-1.541.06-.437-.24-.544-.459-.138-.06.112-.26.251-.42.28-.359.067-.359-.724.02-2.235.38-1.511.38-1.755-.04-2.184-.518-.533-1.596-.435-2.595.217Zm1.398.451c.06.131.02.646-.1 1.135-.18.743-.3.887-.639.909-.599.03-.679-1.091-.14-1.739.48-.576.74-.664.879-.305Zm9.725-2.674c-1.238.737-2.176 2.311-2.376 3.951-.1.911-.2 1.092-.679 1.343-.898.491-.958.178-.44-2.029.62-2.529.62-2.752.06-2.649-.698.13-.878.386-1.237 1.691-.22.852-.44 1.278-.739 1.415-.639.341-.839.013-.599-.924.36-1.406.3-1.76-.34-1.642-.638.119-1.437.774-1.437 1.2 0 .163.08.27.18.251.1-.018.14.502.08 1.162-.08.928-.04 1.225.22 1.4.299.208 1.057.027 1.736-.383.28-.173.32-.059.24.788-.08.765-.02 1.059.22 1.217.479.317 1.497.047 2.176-.586l.579-.554.42.328c.858.653 1.976.283 3.034-.988 1.717-2.043 1.917-4.84.4-5.208-.78-.18-.82-.173-1.498.217Zm1.358.783c.858.714-.76 4.645-1.718 4.214-.519-.248-.558-1.803-.06-2.89.58-1.224 1.278-1.739 1.778-1.324Z" fill="#fff"/><path d="M85.922 113.374c-.559.489-.639 1.539-.08 1.212.999-.611 1.098-.609.959.046-.24 1.038-1.139 3.092-1.558 3.555-.38.415-.38.415-.26-.155.12-.509.08-.562-.379-.477-.3.055-.619.277-.758.546-.26.474-.66.65-.839.399-.06-.09.12-1.057.38-2.16.638-2.614.638-2.736-.08-2.603-.74.137-.78.205-1.338 2.561-.46 1.911-.799 2.502-1.518 2.635-.459.085-.459-.239.04-2.239.54-2.17.52-2.531-.1-2.417-.718.134-1.497.704-1.497 1.11 0 .182.1.367.2.389.14.015.04.723-.24 1.891-.42 1.701-.44 1.907-.16 2.363.44.71 1.458.582 2.197-.265.539-.607.559-.631.658-.244.16.579.899.665 1.678.196.399-.216.698-.312.758-.201.24.321 1.118-.025 1.638-.689.28-.356.778-1.24 1.078-1.965l.559-1.321.02 1.761c0 1.766 0 1.786.499 1.693.4-.074.639-.382 1.318-1.766.439-.913.858-1.681.918-1.692.04-.007.02.484-.04 1.103-.18 1.474.08 1.933 1.018 1.76.42-.078.979-.364 1.318-.671l.58-.533.478.357c.5.395 1.578.296 2.237-.171.718-.539 1.836-2.166 2.056-3.019.14-.573.34-.915.619-1.027.36-.168.4-.115.28.354-.3 1.334-.32 1.723-.04 2.361.24.503.479.682.978.732.898.077 2.076-.487 2.576-1.208.499-.742.199-1.072-.44-.487-.619.541-1.038.598-1.457.23-.32-.306-.28-.375.778-1.281 1.158-.986 1.897-2.097 1.897-2.827 0-1.339-1.677-1.312-2.955.04-.4.419-1.038.984-1.377 1.23-.6.415-.68.43-1.019.188-.678-.503-1.637-.021-1.637.811 0 .203.14.4.3.432.658.141.1 2.132-.7 2.544-1.017.513-1.337-1.031-.598-2.73.46-1.059 1.118-1.567 2.016-1.551.54.002.62-.053.54-.363-.2-1.018-2.177-.612-3.195.653-.679.856-1.338 2.459-1.358 3.254 0 .751-.32 1.175-.938 1.29-.56.104-.58-.177-.16-2.466.42-2.269.4-2.448-.18-2.341-.559.104-1.098.833-2.136 2.933l-.679 1.343-.06-1.775c-.06-1.693-.08-1.77-.559-1.864-.758-.164-1.737.078-2.236.536Zm15.733-1.212c-.239.633-1.258 1.857-1.597 1.92-.22.04.16-1.389.539-2.048.599-1.065 1.478-.964 1.058.128Zm6.689-2.985c-1.358.881-2.316 2.702-2.336 4.431 0 1.095.439 1.907.998 1.844.739-.076 1.158-.296 1.597-.783.24-.288.44-.386.44-.244 0 .122-.28.457-.619.703-2.277 1.7-3.175 2.78-3.175 3.835 0 .609.839 1.305 1.438 1.194 1.257-.233 2.475-1.757 3.154-3.953.38-1.186.539-1.439 1.278-2.002l.839-.622.339.384c.399.474 1.318.445 2.276-.057.479-.271.819-.355.939-.255.359.299 1.058.007 1.617-.645.659-.812 1.138-1.814 1.617-3.485.32-1.094.719-1.696.978-1.5.04.033-.099.87-.319 1.865-.499 2.223-.439 2.922.2 3.148.399.109.639.065 1.198-.282.399-.237.838-.582.998-.774.219-.264.339-.245.699.114.838.839 2.635.019 3.594-1.62.978-1.662 1.178-3.627.419-4.338-.679-.646-2.077-.265-3.075.833-.619.703-1.418 2.576-1.418 3.347 0 .751-.319 1.175-.938 1.29-.579.107-.579-.116-.02-2.594.519-2.307.539-2.271-1.358-2.122-1.517.099-2.415.448-2.695 1.027-.26.556-.04 1.306.28.983.139-.127.459-.328.698-.434.44-.182.46-.146.34.364-.22.994-1.138 3.051-1.538 3.511-.379.415-.379.415-.259-.155.12-.509.08-.563-.34-.485-.279.052-.678.349-.918.677-.499.681-1.078.85-1.537.448-.38-.315-.42-.267 1.257-1.755.999-.895 1.578-2.139 1.258-2.749-.479-1.007-2.016-.661-3.094.675-.599.76-1.318 2.618-1.318 3.47 0 .447-.14.675-.679 1.019l-.659.447.559-2.356c.759-3.185.779-3.148-.259-2.915-.48.109-1.079.18-1.358.171-.28-.03-.759.12-1.098.345Zm1.537.547c.06.05-.06.823-.259 1.733-.44 2.029-1.298 3.04-1.977 2.334-.379-.396.12-2.498.799-3.334.519-.623 1.178-.948 1.437-.733Zm5.351-.383c0 .305-.299.827-.739 1.355-1.118 1.323-1.357 1.144-.679-.504.579-1.385 1.418-1.886 1.418-.851Zm10.542-2.42c.879.73-.739 4.661-1.717 4.214-.839-.393-.24-3.324.819-4.048.579-.391.619-.399.898-.166Zm-17.81 10.524c-.479 1.043-.818 1.41-1.437 1.525-.34.062-.36-.725-.02-1.234.379-.598 1.817-1.778 1.897-1.569.04.094-.16.678-.44 1.278Z" fill="#fff"/></svg>