<svg width="535" height="245" fill="none" xmlns="http://www.w3.org/2000/svg"><mask id="b" style="mask-type:alpha" maskUnits="userSpaceOnUse" x="0" y="0" width="535" height="245"><rect x="535" y="245" width="535" height="245" rx="5" transform="rotate(180 535 245)" fill="url(#a)"/></mask><g mask="url(#b)"><path d="M6.792 150.402a5.045 5.045 0 1 1 0 10.092 5.046 5.046 0 0 1 0-10.092Z" fill="#232325"/><path d="M4.067 111.701H0v133.118h13.584V111.701H4.067Zm48.445 55.326h-4.067v77.791H62.03v-77.791h-9.517Zm-2.432-29.701v-17.488h5.585c2.254 0 3.895.457 4.924 1.371 1.045.915 1.567 2.172 1.567 3.772 0 .947-.212 1.837-.637 2.67-.424.833-1.135 1.502-2.13 2.009-.98.506-2.32.759-4.018.759H53.78v6.907h-3.698Zm-1.959-2.621v-2.375h9.43v2.375h-9.43Zm0-4.286v-3.037h7.177v3.037H48.12Zm6.883-3.037c.702 0 1.306-.074 1.812-.221.507-.163.898-.416 1.176-.759.278-.343.416-.776.416-1.298 0-.751-.236-1.307-.71-1.666-.473-.375-1.216-.563-2.229-.563h-1.69v4.507h1.225Z" fill="#E5554F"/><path d="M55.236 201.914a5.043 5.043 0 0 1 5.043 5.046 5.043 5.043 0 0 1-5.043 5.046 5.047 5.047 0 0 1 0-10.092Z" fill="#232325"/><path d="M100.754 87.052h-4.06v157.767h13.576V87.052h-9.516Z" fill="#E5554F"/><path d="M103.484 139.766a5.05 5.05 0 0 1 5.044 5.046 5.05 5.05 0 0 1-5.044 5.047 5.051 5.051 0 0 1-5.052-5.047 5.05 5.05 0 0 1 5.052-5.046Z" fill="#232325"/><path d="M148.867 129.231h-4.06v115.587h13.576V129.231h-9.516Zm-2.068-18.571V93.171h5.585c2.253 0 3.894.457 4.923 1.372 1.045.914 1.568 2.172 1.568 3.772 0 .947-.212 1.837-.637 2.67-.425.832-1.135 1.502-2.131 2.008-.98.506-2.319.76-4.017.76h-1.592v6.907h-3.699Zm-1.959-2.621v-2.376h9.43v2.376h-9.43Zm0-4.286v-3.038h7.177v3.038h-7.177Zm6.883-3.038c.702 0 1.306-.073 1.812-.22.506-.163.898-.417 1.176-.76.277-.342.416-.775.416-1.298 0-.75-.236-1.306-.71-1.665-.474-.376-1.217-.564-2.229-.564h-1.69v4.507h1.225Z" fill="#E5554F"/><path d="M151.601 159.998a5.05 5.05 0 0 1 5.044 5.047 5.05 5.05 0 0 1-10.096 0 5.051 5.051 0 0 1 5.052-5.047Z" fill="#232325"/><path d="M202.939 132.233h-9.525v112.585H207V132.233h-4.061Z" fill="#E5554F"/><path d="M200.207 167.121a5.05 5.05 0 0 1 5.053 5.045 5.051 5.051 0 0 1-5.053 5.047 5.043 5.043 0 0 1-5.043-5.047 5.042 5.042 0 0 1 5.043-5.045Z" fill="#232325"/></g><defs><linearGradient id="a" x1="1031" y1="273.5" x2="809.703" y2="314.788" gradientUnits="userSpaceOnUse"><stop stop-color="#434347"/><stop offset=".859" stop-color="#434347" stop-opacity="0"/></linearGradient></defs></svg>