<svg width="423" height="245" fill="none" xmlns="http://www.w3.org/2000/svg"><mask id="b" style="mask-type:alpha" maskUnits="userSpaceOnUse" x="0" y="0" width="535" height="245"><rect x="535" y="245" width="535" height="245" rx="5" transform="rotate(180 535 245)" fill="url(#a)"/></mask><g mask="url(#b)"><path d="M435.093 55.59a5.921 5.921 0 0 0-4.126 1.661l-16.296-11.819c.429-.8.675-1.705.675-2.669 0-3.177-2.641-5.763-5.889-5.763s-5.889 2.586-5.889 5.764c0 1.886.933 3.558 2.367 4.608l-20.206 37.426a5.924 5.924 0 0 0-5.478.872l-17.244-16.151a5.645 5.645 0 0 0 1.057-3.288c0-3.178-2.64-5.766-5.888-5.766-3.248 0-5.889 2.585-5.889 5.766 0 1.886.933 3.559 2.37 4.612l-20.212 37.464a5.96 5.96 0 0 0-1.908-.315c-1.51 0-2.887.565-3.929 1.484l-16.627-13.243a5.658 5.658 0 0 0 .805-2.898c0-3.178-2.64-5.767-5.888-5.767-3.246 0-5.889 2.586-5.889 5.767a5.67 5.67 0 0 0 1.452 3.781L284.294 118.3a5.934 5.934 0 0 0-3.039-.836c-3.245 0-5.888 2.585-5.888 5.766a5.68 5.68 0 0 0 1.671 4.017l-18.663 24.369a5.955 5.955 0 0 0-4.053-.53l-21.358-52.79c1.732-1.006 2.902-2.848 2.902-4.96 0-3.178-2.641-5.767-5.889-5.767s-5.888 2.586-5.888 5.767c0 1.776.826 3.368 2.123 4.427l-19.674 32.227a5.953 5.953 0 0 0-2.2-.422c-3.245 0-5.889 2.585-5.889 5.766 0 1.741.797 3.3 2.045 4.359l-19.498 30.71a5.944 5.944 0 0 0-2.297-.458c-1.267 0-2.44.399-3.4 1.068l-17.529-17.615a5.65 5.65 0 0 0 1.182-3.448c0-3.178-2.641-5.767-5.889-5.767-3.245 0-5.889 2.586-5.889 5.767 0 1.797.845 3.404 2.167 4.463l-19.769 33.084a5.968 5.968 0 0 0-2.148-.402c-3.245 0-5.889 2.586-5.889 5.767 0 1.675.739 3.181 1.908 4.237l-19.191 28.184a5.909 5.909 0 0 0-2.464-.536 5.922 5.922 0 0 0-4.172 1.705l-16.208-11.515c.41-.786.648-1.672.648-2.616 0-3.177-2.64-5.766-5.89-5.766-3.244 0-5.888 2.586-5.888 5.766 0 1.339.474 2.571 1.258 3.55l-17.708 18.588a5.931 5.931 0 0 0-3.3-.994c-.79 0-1.54.155-2.23.432l-19.62-31.764c1.282-1.059 2.1-2.639 2.1-4.406 0-3.178-2.641-5.767-5.89-5.767-3.248 0-5.888 2.586-5.888 5.767 0 3.178 2.64 5.766 5.889 5.766.79 0 1.54-.155 2.23-.431l19.623 31.766c-1.282 1.059-2.1 2.639-2.1 4.407 0 3.177 2.64 5.766 5.889 5.766 3.245 0 5.889-2.586 5.889-5.766a5.663 5.663 0 0 0-1.259-3.55l17.71-18.588a5.931 5.931 0 0 0 3.299.994 5.922 5.922 0 0 0 4.172-1.705l16.222 11.503a5.628 5.628 0 0 0-.647 2.613c0 3.177 2.64 5.766 5.889 5.766 3.248 0 5.889-2.586 5.889-5.766 0-1.676-.739-3.181-1.909-4.235l19.192-28.183a5.92 5.92 0 0 0 2.464.535c3.245 0 5.889-2.585 5.889-5.766 0-1.797-.845-3.404-2.167-4.463l19.769-33.084a5.941 5.941 0 0 0 5.551-.667l17.53 17.615a5.644 5.644 0 0 0-1.182 3.448c0 3.178 2.64 5.767 5.888 5.767 3.248 0 5.889-2.586 5.889-5.767 0-1.74-.796-3.299-2.045-4.359l19.498-30.709a5.962 5.962 0 0 0 2.297.458c3.246 0 5.889-2.586 5.889-5.767 0-1.776-.826-3.368-2.124-4.427l19.672-32.227c.68.27 1.422.422 2.199.422.444 0 .876-.053 1.295-.146l21.358 52.791c-1.732 1.006-2.902 2.847-2.902 4.96 0 3.178 2.64 5.767 5.889 5.767 3.248 0 5.888-2.586 5.888-5.767a5.68 5.68 0 0 0-1.671-4.017l18.663-24.369a5.956 5.956 0 0 0 2.759.676c3.245 0 5.888-2.586 5.888-5.767 0-1.446-.55-2.767-1.452-3.782l18.167-21.182a5.942 5.942 0 0 0 6.968-.649l16.626 13.244a5.65 5.65 0 0 0-.805 2.898c0 3.178 2.641 5.767 5.889 5.767s5.889-2.586 5.889-5.767c0-1.886-.933-3.558-2.37-4.612l20.212-37.464a5.924 5.924 0 0 0 5.475-.875l17.244 16.151a5.638 5.638 0 0 0-1.057 3.288c0 3.178 2.64 5.767 5.888 5.767 3.248 0 5.889-2.586 5.889-5.767 0-1.886-.933-3.559-2.367-4.609l20.206-37.425c.599.202 1.24.318 1.911.318a5.924 5.924 0 0 0 4.127-1.66l16.295 11.818a5.635 5.635 0 0 0-.674 2.67c0 3.177 2.64 5.766 5.888 5.766 3.249 0 5.889-2.586 5.889-5.767-.018-3.172-2.662-5.757-5.907-5.757ZM20.826 197.727c0-2.196 1.823-3.981 4.066-3.981 2.242 0 4.065 1.785 4.065 3.981 0 2.196-1.823 3.981-4.065 3.981-2.243 0-4.066-1.785-4.066-3.981Zm55.34 18.576c-2.242 0-4.065-1.786-4.065-3.982 0-2.195 1.823-3.981 4.066-3.981 2.242 0 4.065 1.786 4.065 3.981 0 2.196-1.826 3.982-4.065 3.982Zm-29.7 22.932c0-2.196 1.822-3.982 4.065-3.982 2.242 0 4.065 1.786 4.065 3.982 0 2.195-1.823 3.981-4.065 3.981-2.243 0-4.066-1.789-4.066-3.981Zm59.403-8.733c0 2.195-1.824 3.981-4.066 3.981s-4.066-1.786-4.066-3.981c0-2.196 1.824-3.982 4.066-3.982s4.066 1.789 4.066 3.982Zm25.639-37.646c0 2.196-1.824 3.981-4.066 3.981s-4.065-1.785-4.065-3.981c0-2.196 1.823-3.981 4.065-3.981 2.242 0 4.066 1.785 4.066 3.981Zm51.272-17.148c0 2.196-1.823 3.982-4.066 3.982-2.242 0-4.065-1.786-4.065-3.982s1.823-3.981 4.065-3.981c2.243 0 4.066 1.785 4.066 3.981Zm-33.764-25.761c0-2.196 1.823-3.981 4.065-3.981 2.243 0 4.066 1.785 4.066 3.981 0 2.196-1.823 3.981-4.066 3.981-2.242 0-4.065-1.785-4.065-3.981Zm59.403-14.619c0 2.196-1.823 3.981-4.066 3.981-2.242 0-4.065-1.785-4.065-3.981 0-2.196 1.823-3.981 4.065-3.981 2.243 0 4.066 1.788 4.066 3.981Zm17.508-41.995c0-2.196 1.823-3.982 4.065-3.982 2.243 0 4.066 1.786 4.066 3.982 0 2.195-1.823 3.98-4.066 3.98-2.242 0-4.065-1.787-4.065-3.98Zm110.681 20.42c0 2.196-1.823 3.981-4.065 3.981-2.243 0-4.066-1.785-4.066-3.981 0-2.196 1.823-3.981 4.066-3.981 2.242 0 4.065 1.788 4.065 3.981ZM306.904 97.31c-2.243 0-4.066-1.785-4.066-3.981 0-2.196 1.823-3.982 4.066-3.982 2.242 0 4.065 1.786 4.065 3.982s-1.823 3.98-4.065 3.98Zm-25.636 29.894c-2.243 0-4.066-1.785-4.066-3.981 0-2.196 1.823-3.981 4.066-3.981 2.242 0 4.065 1.785 4.065 3.981 0 2.196-1.826 3.981-4.065 3.981Zm-25.636 33.477c-2.243 0-4.066-1.785-4.066-3.981 0-2.196 1.823-3.981 4.066-3.981 2.242 0 4.065 1.785 4.065 3.981 0 2.196-1.826 3.981-4.065 3.981ZM387.88 90.246c0 2.196-1.823 3.981-4.065 3.981-2.243 0-4.066-1.785-4.066-3.981 0-2.196 1.823-3.981 4.066-3.981 2.242 0 4.065 1.785 4.065 3.981Zm-29.698-20.037c-2.243 0-4.066-1.785-4.066-3.981 0-2.196 1.823-3.981 4.066-3.981 2.242 0 4.065 1.785 4.065 3.981 0 2.196-1.826 3.981-4.065 3.981Zm76.911-4.874c-2.242 0-4.065-1.785-4.065-3.98 0-2.197 1.823-3.982 4.065-3.982 2.243 0 4.066 1.785 4.066 3.981 0 2.196-1.823 3.981-4.066 3.981Zm-25.639-18.593c-2.242 0-4.066-1.786-4.066-3.981 0-2.196 1.824-3.979 4.066-3.979s4.066 1.786 4.066 3.979c0 2.195-1.824 3.98-4.066 3.98Z" fill="#E5554F"/></g><defs><linearGradient id="a" x1="938" y1="299.5" x2="845.724" y2="405.216" gradientUnits="userSpaceOnUse"><stop stop-color="#434347"/><stop offset="1" stop-color="#434347" stop-opacity="0"/></linearGradient></defs></svg>