<svg width="535" height="245" fill="none" xmlns="http://www.w3.org/2000/svg"><mask id="b" style="mask-type:alpha" maskUnits="userSpaceOnUse" x="0" y="0" width="535" height="245"><rect x="535" y="245" width="535" height="245" rx="5" transform="rotate(180 535 245)" fill="url(#a)"/></mask><g mask="url(#b)"><path d="M57.636 191.747h-13.44v53.558h13.44v-53.558Zm-24.194 26.78H20v26.778h13.442v-26.778Zm48.39-15.132H68.39v41.91h13.44v-41.91Zm24.195-26.853H92.586v68.763h13.441v-68.763Zm24.193-15.058h-13.441v83.821h13.441v-83.821Zm24.196-5.442h-13.441v89.263h13.441v-89.263Zm24.195-30.781H165.17v120.044h13.441V125.261Zm24.193-8.952h-13.441v128.996h13.441V116.309ZM227 85.941h-13.441v159.364H227V85.941ZM147.189 74.98c-.1 7.228-1.221 14.465-3.13 21.51l-.706 2.651-.872 2.598c-.578 1.737-1.154 3.478-1.867 5.166-1.323 3.422-2.936 6.722-4.595 10.002-3.415 6.515-7.719 12.563-12.625 18.032a123.4 123.4 0 0 1-16.142 14.887l-4.425 3.232c-1.507 1.032-3.057 1.997-4.582 2.997-3.069 1.969-6.274 3.713-9.509 5.382-6.503 3.277-13.32 5.89-20.3 7.862a111.885 111.885 0 0 1-42.9 3.29l.053-.612c14.25.698 28.575-1.062 41.952-5.619 6.7-2.209 13.19-5.024 19.326-8.455 3.051-1.745 6.063-3.556 8.933-5.578 1.423-1.024 2.872-2.012 4.273-3.062l4.104-3.278a107.704 107.704 0 0 0 14.578-14.989c4.353-5.428 8.372-11.109 11.905-17.106 1.776-2.99 3.479-6.038 4.992-9.186.833-1.54 1.534-3.141 2.243-4.744l1.077-2.4.985-2.44c2.632-6.52 4.78-13.271 6.622-20.222l.61.083Z" fill="#E5554F"/><mask id="c" style="mask-type:luminance" maskUnits="userSpaceOnUse" x="131" y="73" width="24" height="24"><path d="m154.233 96.212-23.044-6.402 16.959-16.368 6.085 22.77Z" fill="#fff"/></mask><g mask="url(#c)"><path d="m154.233 96.212-23.044-6.402 16.959-16.368 6.085 22.77Z" fill="#E5554F"/></g></g><defs><linearGradient id="a" x1="1021.5" y1="267" x2="818.564" y2="304.862" gradientUnits="userSpaceOnUse"><stop stop-color="#434347"/><stop offset=".886" stop-color="#434347" stop-opacity="0"/></linearGradient></defs></svg>