<svg width="121" height="88" fill="none" xmlns="http://www.w3.org/2000/svg"><path d="M65.41.108c1.972 3.842 2.596 6.664 2.228 10.06-.305 2.742-.465 3.412-2.74 11.032-1.25 4.161-1.698 7.525-1.298 9.805.449 2.551 1.859 5.118 3.83 6.967.945.893 2.82 2.2 3.14 2.2.064 0-.192-.446-.56-.972-2.148-3.157-3.045-7.11-2.564-11.304.272-2.28.657-4.065 1.778-8.306 1.602-5.994 1.987-8.609 1.618-11.144-.448-3.029-1.794-5.436-4.198-7.493-1.04-.893-1.377-1.116-1.233-.845Zm-7.048 7.158c1.458 2.981 1.634 3.794 1.522 6.92-.112 2.693-.353 3.969-1.779 9.373-1.33 4.99-1.602 6.537-1.49 8.402.08 1.34.497 2.934.994 3.906.705 1.355 2.323 3.013 3.957 4.034.385.239.32.111-.4-.957-.946-1.387-1.33-2.407-1.57-4.193-.321-2.296.096-4.862 1.714-10.506 1.426-4.958 1.714-6.393 1.714-8.705.016-2.917-.593-4.607-2.355-6.425-.881-.924-2.483-2.2-2.307-1.85Zm-5.801 7.748c.641 1.37.865 2.95.657 4.527-.256 1.802-.56 2.838-1.81 6.202-.625 1.658-1.298 3.699-1.507 4.528-.704 2.742-.448 5.181.721 7.015.53.797 1.94 2.216 2.884 2.885.577.399.545.287-.08-.558-1.281-1.706-1.634-4.001-1.057-6.775.176-.83.913-3.173 1.634-5.182.721-2.024 1.458-4.352 1.634-5.181.721-3.412-.08-5.851-2.531-7.796-.465-.367-.865-.654-.913-.654-.048 0 .112.447.368.989Zm-9.115 27.804c-.193.24-.337.574-.337.766.016.876 1.586 3.236 3.46 5.18 3.526 3.684 8.46 5.756 13.683 5.756 5.192 0 9.774-1.897 13.475-5.564 1.65-1.642 3.429-4.16 3.605-5.07.08-.414.032-.653-.208-.972l-.32-.43-16.52-.048-16.502-.032-.336.414ZM22.409 59.766c-.77.319-.833.51-.4 1.164.576.845 1.313 1.243 2.307 1.243 1.121 0 1.89-.367 2.403-1.132.496-.75.416-1.02-.4-1.275-.578-.16-.658-.144-1.042.239-.56.542-1.17.542-1.795-.048-.48-.446-.48-.446-1.073-.191Zm66.57.318c-.417.383-.69.479-1.603.558-1.682.16-2.643.495-3.492 1.244-1.779 1.563-2.5 5.07-1.586 7.7.368 1.069 1.634 2.328 2.691 2.679 1.266.43 2.708.35 3.877-.192 1.73-.813 2.628-2.28 2.628-4.272 0-2.248-1.362-3.81-3.653-4.21-1.201-.206-2.435.017-3.188.59-.641.48-.69.272-.112-.414.624-.733 1.265-.988 2.835-1.132 1.683-.16 2.644-.542 3.22-1.291.562-.75.53-1.02-.223-1.403-.785-.399-.785-.399-1.394.143Zm-.577 5.692c1.474 1.1 1.522 3.237.096 4.32-1.202.91-3.268.59-4.038-.637-1.233-1.977.209-4.225 2.596-4.066.593.048 1.073.176 1.346.383Zm-76.135-2.598c-1.074.366-1.618.701-2.307 1.482-1.667 1.897-1.442 5.214.464 6.776.978.813 2.115 1.132 3.701 1.068 1.186-.048 1.554-.143 2.484-.622 1.281-.637 1.41-.924.753-1.706l-.449-.51-.961.495c-.865.446-1.074.478-2.195.43-1.362-.048-1.843-.303-2.5-1.26l-.368-.542 3.733-.08 3.733-.079-.016-1.116c-.016-2.567-1.762-4.352-4.39-4.48-.593-.032-1.314.032-1.682.144Zm3.044 2.184c.513.319 1.17 1.211.993 1.37-.032.049-1.265.049-2.74.033l-2.675-.048.368-.558c.561-.83 1.603-1.323 2.66-1.212.465.032 1.09.223 1.394.415Zm26.867-2.104c-2.13.765-3.396 2.742-3.188 4.974.288 3.3 3.445 5.102 6.986 4.001.929-.287 2.099-1.004 2.099-1.275 0-.064-.24-.398-.53-.733l-.544-.622-.465.335c-.689.478-1.442.685-2.499.685-1.154 0-1.843-.27-2.42-.94-.8-.957-.816-.957 3.221-1.005l3.637-.048.048-.892c.064-1.069-.368-2.344-1.09-3.205-1.089-1.323-3.492-1.897-5.255-1.275Zm3.173 2.024c.432.224 1.121 1.069 1.121 1.387 0 .08-1.233.128-2.723.128h-2.74l.24-.446c.69-1.324 2.628-1.834 4.102-1.069Zm8.204-2.089c-.369.127-.866.35-1.09.494-.224.144-.416.24-.432.207-.32-.621-.417-.685-1.09-.685h-.705v11.798h1.923l.048-1.563c.016-.845.064-1.547.096-1.547s.288.128.593.271c.673.335 2.563.463 3.46.224 1.907-.51 3.269-2.328 3.301-4.416.032-2.838-1.714-4.783-4.454-4.943-.545-.032-1.25.032-1.65.16Zm2.243 1.85c.705.206 1.49 1.051 1.746 1.896.224.766.08 1.834-.336 2.52-.625 1.051-2.452 1.482-3.798.924-1.137-.478-1.17-.558-1.17-2.646 0-1.834.017-1.898.401-2.153.994-.638 2.083-.829 3.157-.542Zm49.539-1.85a4.56 4.56 0 0 0-1.042.478c-.496.335-.593.32-.657-.111-.048-.303-.144-.351-.849-.351h-.801v11.798h1.923l.048-1.563c.016-.845.064-1.546.096-1.546s.4.16.817.335c.641.286.993.334 2.067.27 2.003-.111 3.268-.892 4.053-2.487.593-1.227.625-3.029.064-4.304-.929-2.089-3.492-3.205-5.719-2.519Zm2.9 2.168c1.121.702 1.522 2.487.849 3.826-.513.973-1.058 1.324-2.195 1.403-1.042.08-1.859-.127-2.484-.621-.4-.32-.416-.383-.416-2.216V65.87l.577-.366c1.137-.702 2.675-.765 3.669-.144Z" fill="#fff"/><path d="M.123 63.225c-.209.207-.129 8.912.08 9.12.112.11.48.19.849.19.368 0 .737-.08.849-.19.128-.128.192-.734.192-1.69 0-1.356.032-1.531.369-1.802.192-.16.432-.287.528-.303.097 0 .802.781 1.57 1.754.77.956 1.555 1.865 1.747 1.992.433.303 2.291.335 2.403.032.032-.095-.897-1.291-2.099-2.646l-2.146-2.455 2.018-1.898c1.106-1.052 2.019-1.976 2.019-2.056 0-.08-.56-.144-1.25-.144H6.02l-1.923 1.914-1.923 1.913-.08-1.866-.08-1.88-.881-.049c-.497-.032-.945 0-1.01.064Zm20.009.145c-.048.143-.096 2.183-.096 4.527 0 3.093.048 4.305.192 4.448.32.319 1.666.24 2.019-.127.288-.303 2.067-2.775 3.685-5.086l.833-1.18.032 3.252.048 3.253.737.047c.48.032.801-.031.93-.175.128-.175.176-1.435.144-4.671l-.048-4.448-.881-.048c-.481-.016-.962.016-1.042.08-.208.16-3.012 3.938-3.91 5.26-.368.559-.688 1.005-.704 1.005-.016 0-.032-1.419-.032-3.14V63.21l-.898-.048c-.72-.032-.929 0-1.009.207Zm9.902-.018c-.048.112-.064.526-.032.909l.048.701 1.57.048 1.554.048v3.54c0 2.55.048 3.602.192 3.746.113.111.481.191.85.191.368 0 .737-.08.849-.191.144-.144.192-1.196.192-3.747v-3.539l1.57-.048 1.554-.048V63.21l-4.133-.048c-3.413-.032-4.134 0-4.214.191Zm31.436.016c-.048.144-.096 2.185-.096 4.528 0 3.093.048 4.305.192 4.448.208.208 1.554.255 1.81.064.273-.191 1.106-1.291 2.965-3.938l1.762-2.519v3.189c0 3.523-.032 3.396 1.01 3.396.945 0 .929.127.88-4.8l-.047-4.527-.914-.048-.913-.048-.737.925a98.51 98.51 0 0 0-2.13 2.902c-.77 1.068-1.507 2.104-1.635 2.28-.208.27-.24-.016-.24-2.854v-3.157l-.898-.048c-.72-.032-.929 0-1.009.207Zm10.911-.144c-.208.208-.128 8.913.08 9.12.113.111.481.191.85.191.368 0 .737-.08.849-.191.128-.128.192-.797.192-1.993v-1.802h4.166v1.897c0 2.105 0 2.089 1.105 2.089.32 0 .673-.08.785-.191.305-.303.273-8.785-.032-9.04-.128-.111-.577-.175-1.01-.143l-.768.047-.048 1.706-.048 1.722h-4.134l-.048-1.722-.048-1.706-.881-.047c-.497-.032-.946 0-1.01.063Zm19.162.256c.064.207.93 2.152 1.955 4.336 1.01 2.184 1.843 4.082 1.843 4.225 0 .542-.417.877-1.218.957l-.785.095-.048.686c-.032.383.032.797.144.925.497.59 2.547 0 3.204-.925.417-.574 4.47-10.363 4.358-10.522-.032-.08-.528-.128-1.073-.128h-1.026l-.913 2.583a149.883 149.883 0 0 1-1.218 3.316l-.272.717-.352-.797c-.177-.446-.817-1.913-1.41-3.268l-1.074-2.471-1.105-.048c-1.074-.048-1.09-.032-1.01.319Zm21.534-.255c-.064.064-.112 2.136-.112 4.623 0 4.99-.064 4.687 1.106 4.687.32 0 .673-.08.785-.19.144-.144.192-1.197.192-3.748v-3.539l2.532-.048 2.515-.047v-1.754l-3.461-.048c-1.89-.016-3.493.016-3.557.064ZM60.203 77.924c-.432.462-.32.877.337 1.291l.593.383-.481.16c-.272.095-.77.35-1.122.59-.897.605-1.313.716-1.618.414-.336-.351-.977-.32-1.185.047-.193.367-.048.814.256.814.288 0 .288.35 0 1.036-.24.558-.785.956-1.138.813-.624-.24-.368-2.073.417-2.838.4-.398.529-.446 1.041-.35.513.095.577.063.513-.192-.032-.16-.256-.399-.513-.51-.384-.191-.544-.191-1.17.048-.56.223-.832.462-1.217 1.052-.4.653-.56.781-.961.781-.369 0-.449-.048-.369-.271.064-.143.16-.574.209-.956.096-.67.08-.686-.369-.686-.785 0-1.586.797-1.01.988.225.08-.4 2.52-.688 2.695-.32.207-.93.175-.93-.064 0-.096.177-.893.385-1.754.449-1.833.465-1.801-1.33-1.96-1.314-.128-1.938.143-1.938.812 0 .447.096.479.737.24.24-.096.464-.144.496-.096.128.127-.929 2.455-1.233 2.726-.305.271-.32.271-.32-.064 0-.287-.081-.35-.434-.303-.48.048-.64.463-.448 1.196.08.319.176.383.593.335.705-.064 1.41-1.02 2.003-2.678.24-.702.544-1.276.656-1.276.257 0 .24.175-.128 1.594-.368 1.387-.4 1.93-.128 2.2.272.271 1.266.24 1.698-.063.305-.208.353-.208.353-.016 0 .303.304.414.72.27.225-.079.401-.398.578-1.051.208-.782.32-.957.753-1.132l.496-.208-.096.526c-.112.75.289 1.627.865 1.818 1.058.367 2.596-.733 2.98-2.136.113-.415.289-.686.481-.75.224-.048.273-.016.176.192-.048.143-.144.637-.176 1.084-.064.685-.032.86.288 1.227.369.399.641.495 1.378.447.513-.032 1.426-1.037 1.715-1.898.416-1.18.336-2.104-.225-2.87-.272-.366-.56-.669-.64-.669-.097 0-.16-.064-.16-.143 0-.064.352-.064.8.032.962.19 1.603-.112 1.603-.766 0-.398-.016-.398-1.41-.398-1.17 0-1.474.048-1.683.287Zm1.33 3.109c0 .382-.16.988-.352 1.387-.32.605-.449.717-.85.717-.384 0-.496-.08-.528-.398-.144-.989.64-2.392 1.362-2.392.32 0 .368.08.368.686Zm-41.289-1.307c-.384.191-.689.43-.689.558 0 .255.417.303.561.063.16-.255.833-.175.945.096.129.335-.256.765-1.073 1.228-.753.43-1.138 1.068-.993 1.722.24 1.052 1.73 1.307 2.9.494l.672-.478.32.446c.642.845 1.731.685 2.725-.383.416-.462.737-.988.849-1.45.192-.766 1.137-1.802 1.234-1.34.015.128-.321 1.706-.77 3.492-.432 1.801-.8 3.364-.8 3.46 0 .318.929.254 1.089-.08.096-.144.32-.973.513-1.818.336-1.467.368-1.53.704-1.403.209.08.593.048.978-.096 1.634-.541 2.724-3.316 1.73-4.4-.32-.35-1.137-.382-1.602-.047-.304.207-.352.207-.433 0-.176-.447-.977-.272-1.794.398-.833.686-.945.733-1.106.478-.144-.223-.769-.207-1.009.032-.272.271-.24.75.048.861.4.16.289.973-.224 1.53-.625.686-1.042.495-1.106-.494-.096-1.323.866-2.55 1.795-2.311.224.048.432.016.496-.096.193-.319-.336-.67-1.025-.701-1.09-.016-2.035.94-2.515 2.566-.209.734-.337.893-.898 1.18-.8.399-1.474.35-1.538-.127-.032-.224.096-.43.385-.638 1.634-1.084 2.083-2.089 1.25-2.742-.53-.415-.77-.415-1.619 0Zm9.854.972c.256.255.24.973-.048 1.674-.369.861-.705 1.164-1.298 1.164h-.513l.305-1.243c.384-1.515.993-2.153 1.554-1.595Zm3.445-1.004c-.77.35-1.01.718-1.01 1.515 0 .398.112.637.385.86l.384.287-.32.51c-.369.59-.609.654-.609.176 0-.255-.08-.319-.432-.271-.417.048-.45.096-.45.765 0 .67.033.718.465.766.53.063 1.058-.367 1.587-1.276.464-.829.689-.765.624.16-.064.86.177 1.18.866 1.18.528 0 1.25-.527 1.313-.973.049-.335-.192-.463-.368-.176-.048.08-.208.16-.336.16-.289 0-.289-.622.016-1.754.304-1.132.304-1.323-.032-1.722-.417-.494-1.282-.574-2.083-.207Zm1.121.558c.048.112.016.51-.08.877-.144.558-.24.654-.513.622-.48-.064-.544-.957-.112-1.387.385-.383.593-.415.705-.112Zm7.806-.686c-.994.399-1.747 1.499-1.907 2.758-.08.702-.16.83-.545.957-.721.255-.77 0-.353-1.658.497-1.898.497-2.073.048-2.073-.56 0-.705.175-.993 1.148-.176.638-.352.94-.593 1.004-.513.176-.673-.111-.48-.813.288-1.052.24-1.339-.273-1.339s-1.154.399-1.154.734c0 .127.065.223.145.223.08 0 .112.414.064.924-.064.718-.032.957.176 1.132.24.207.85.176 1.394-.048.224-.095.256 0 .192.654-.064.59-.016.83.176.989.385.318 1.202.255 1.747-.144l.465-.35.336.318c.689.638 1.586.51 2.435-.335 1.378-1.355 1.538-3.523.32-4.033-.624-.255-.656-.255-1.2-.048Zm1.089.813c.689.686-.61 3.54-1.378 3.061-.417-.27-.449-1.498-.048-2.28.464-.876 1.025-1.18 1.425-.78Z" fill="#fff"/><path d="M68.295 79.646c-.448.303-.513 1.116-.064.94.801-.334.881-.318.77.176-.193.781-.914 2.264-1.25 2.567-.305.27-.305.27-.209-.16.096-.382.064-.43-.304-.43-.24 0-.497.127-.61.319-.207.335-.528.414-.672.191-.048-.08.096-.813.304-1.642.513-1.961.513-2.057-.064-2.057-.593 0-.625.048-1.073 1.818-.369 1.435-.641 1.85-1.218 1.85-.368 0-.368-.256.032-1.755.433-1.626.417-1.913-.08-1.913-.577 0-1.202.335-1.202.654 0 .144.08.303.16.335.113.032.033.574-.192 1.45-.336 1.276-.352 1.435-.128 1.834.353.622 1.17.67 1.763.112.432-.399.448-.415.528-.096.129.478.721.654 1.346.398.32-.111.56-.143.609-.047.192.287.897.143 1.314-.303.224-.24.625-.861.865-1.387l.449-.957.016 1.387c0 1.387 0 1.403.4 1.403.32 0 .513-.207 1.058-1.195.352-.654.688-1.196.737-1.196.032 0 .016.382-.032.86-.145 1.133.064 1.531.817 1.531a2.07 2.07 0 0 0 1.057-.335l.465-.334.384.35c.4.383 1.266.463 1.795.192.576-.32 1.474-1.435 1.65-2.073.112-.43.272-.67.497-.717.288-.08.32-.032.224.319-.24 1.004-.256 1.307-.032 1.849.192.43.385.606.785.717.721.192 1.666-.08 2.067-.574.4-.51.16-.813-.353-.446-.496.335-.833.319-1.17-.032-.256-.287-.224-.335.626-.893.929-.605 1.522-1.37 1.522-1.945 0-1.052-1.346-1.275-2.372-.398-.32.27-.833.621-1.105.765-.48.24-.545.24-.817 0-.545-.494-1.314-.255-1.314.398 0 .16.112.335.24.383.53.207.08 1.69-.56 1.897-.817.255-1.074-1.004-.481-2.232.368-.765.897-1.068 1.618-.924.433.08.497.047.433-.208-.16-.829-1.747-.797-2.564.048-.544.574-1.073 1.738-1.09 2.36 0 .59-.256.877-.752.877-.449 0-.465-.224-.128-1.961.336-1.722.32-1.866-.145-1.866-.448 0-.88.495-1.714 1.993l-.545.957-.048-1.403c-.048-1.34-.064-1.403-.448-1.547-.61-.239-1.394-.19-1.795.096Zm12.625 1.34c-.192.462-1.009 1.275-1.281 1.275-.177 0 .128-1.069.432-1.53.48-.75 1.186-.543.85.254Zm5.369-1.372c-1.09.494-1.859 1.786-1.875 3.14 0 .862.353 1.563.801 1.595.593.048.93-.064 1.282-.383.192-.19.353-.239.353-.127 0 .096-.225.319-.497.462-1.826 1.005-2.547 1.722-2.547 2.551 0 .478.672 1.148 1.153 1.148 1.01 0 1.987-1.02 2.531-2.647.305-.876.433-1.052 1.026-1.386l.673-.367.272.35c.32.431 1.058.543 1.827.287.384-.143.657-.159.753-.063.288.287.849.16 1.297-.271.53-.542.914-1.26 1.298-2.503.257-.813.577-1.228.785-1.037.032.032-.08.67-.256 1.42-.4 1.673-.353 2.231.16 2.502.32.144.513.144.962-.047.32-.128.672-.335.8-.463.177-.175.273-.143.561.191.673.782 2.115.4 2.884-.749.785-1.164.946-2.678.337-3.348-.545-.606-1.666-.51-2.468.207-.496.463-1.137 1.818-1.137 2.424 0 .59-.257.877-.753.877-.465 0-.465-.176-.016-2.041.416-1.738.432-1.706-1.09-1.865-1.217-.144-1.938 0-2.163.414-.208.399-.032 1.02.225.813.112-.08.368-.191.56-.239.353-.08.369-.048.273.335-.176.75-.913 2.232-1.234 2.535-.304.27-.304.27-.208-.16.096-.382.064-.43-.273-.43-.224 0-.544.175-.736.398-.401.463-.866.51-1.234.128-.305-.303-.337-.271 1.01-1.196.8-.558 1.265-1.45 1.008-1.977-.384-.86-1.618-.813-2.483.08-.48.51-1.057 1.865-1.057 2.535 0 .35-.112.51-.545.702l-.529.255.449-1.77c.609-2.392.625-2.36-.208-2.328-.385.016-.866-.016-1.09-.064-.224-.063-.609-.015-.881.112Zm1.234.654c.048.048-.048.638-.209 1.323-.352 1.53-1.041 2.2-1.586 1.547-.304-.367.096-1.946.641-2.504.417-.414.945-.573 1.154-.366Zm4.293.478c0 .24-.24.606-.592.957-.898.876-1.09.701-.545-.495.465-1.004 1.137-1.275 1.137-.462Zm8.46-.367c.705.702-.593 3.556-1.378 3.061-.673-.43-.192-2.646.657-3.06.465-.224.497-.224.721 0Zm-14.291 5.676c-.385.75-.657.988-1.154.988-.273 0-.288-.621-.016-.972.304-.415 1.458-1.132 1.522-.957.032.08-.128.51-.353.941Z" fill="#fff"/></svg>