<?xml version="1.0" encoding="utf-8"?><svg xmlns="http://www.w3.org/2000/svg" xmlns:xlink="http://www.w3.org/1999/xlink" style="display:none;" fill="none"><symbol fill="none" viewBox="0 0 20 16" id="arrow" xmlns="http://www.w3.org/2000/svg"><path d="M19.206 7.086a1 1 0 0 1 0 1.414l-6.364 6.364a1 1 0 0 1-1.414-1.414l5.657-5.657-5.657-5.657A1 1 0 0 1 12.842.722l6.364 6.364ZM.5 6.793h18v2H.5v-2Z" fill="#fff"/></symbol><symbol fill="none" viewBox="0 0 25 19" id="burger" xmlns="http://www.w3.org/2000/svg"><path d="M2.51 9.887h20.297M2.51 3.12h20.297M2.51 16.652h20.297" stroke="#fff" stroke-width="2" stroke-linecap="round" stroke-linejoin="round"/></symbol><symbol fill="none" viewBox="0 0 31 31" id="industries" xmlns="http://www.w3.org/2000/svg"><path d="M25.52 15.44a10.079 10.079 0 1 0-20.158 0 10.079 10.079 0 0 0 20.158 0ZM2 15.44a13.44 13.44 0 1 1 26.88 0 13.44 13.44 0 0 1-26.88 0Zm13.44 4.2a4.2 4.2 0 1 0 0-8.4 4.2 4.2 0 0 0 0 8.4Zm0-11.76a7.56 7.56 0 1 1 0 15.12 7.56 7.56 0 0 1 0-15.12Zm-1.68 7.56a1.68 1.68 0 1 1 3.36 0 1.68 1.68 0 0 1-3.36 0Z" fill="#fff"/></symbol><symbol fill="none" viewBox="0 0 24 25" id="location" xmlns="http://www.w3.org/2000/svg"><path d="M20.62 9.25c-1.05-4.62-5.08-6.7-8.62-6.7h-.01c-3.53 0-7.57 2.07-8.62 6.69-1.17 5.16 1.99 9.53 4.85 12.28A5.436 5.436 0 0 0 12 23.05c1.36 0 2.72-.51 3.77-1.53 2.86-2.75 6.02-7.11 4.85-12.27ZM12 14.26a3.15 3.15 0 1 1 0-6.3 3.15 3.15 0 0 1 0 6.3Z" fill="#fff"/></symbol><symbol fill="none" viewBox="0 0 323 55" id="logo" xmlns="http://www.w3.org/2000/svg"><path d="M97.383.001c-11.722 0-21.216 9.142-21.216 21.217 0 12.073 9.494 21.04 21.216 21.04 11.723 0 21.276-9.143 21.276-21.04C118.659 9.143 109.106 0 97.383 0Zm-.234 32.762c-5.568-.058-11.019-3.869-11.019-11.545 0-7.68 5.45-11.488 11.019-11.606 5.685-.117 11.43 3.752 11.43 11.606 0 7.736-5.745 11.604-11.43 11.545ZM16.921.002H0v42.213h10.224V29.778h6.697c9.687 0 14.59-7.294 14.709-14.59C31.75 7.775 26.846.002 16.92.002Zm0 20.15h-6.697V9.925h6.697c3.17 0 4.724 2.692 4.724 5.204 0 2.45-1.555 5.021-4.724 5.021ZM70.28 15.188C70.399 7.774 65.496.002 55.57.002H38.65v42.213h10.225V29.778h2.786l8.322 12.368h11.263l-9.192-13.68c5.393-2.42 8.138-7.846 8.227-13.278ZM48.874 9.927h6.697c3.17 0 4.723 2.691 4.723 5.204 0 2.45-1.554 5.021-4.723 5.021h-6.697V9.926Z" fill="#fff"/><path d="M137.596 41.991H0v9.925h132.297l5.299-9.925Z" fill="#E5554F"/><path d="M5.877 49.61H4.775V45.1H7.74v1.05H5.877v3.46ZM13.796 45.1c2.114 0 2.108 3.17 0 3.17h-.624v1.34h-1.103V45.1h1.727Zm0 2.133c.683 0 .683-1.063 0-1.063h-.624v1.063h.624ZM20.381 49.616l.67-1.534-1.45-2.983h1.224l.458.941.368.876.315-.863.412-.954h1.225l-2.03 4.517h-1.192ZM31.252 45.1v4.51h-1.101v-3.447h-1.186v3.447h-1.102V45.1h3.39ZM39.023 45.1v4.51H37.92v-3.447h-1.186v3.447h-1.101V45.1h3.389ZM46.279 48.947h-1.54l-.252.663H43.31l1.803-4.562h.787l1.875 4.562H46.53l-.251-.663Zm-1.102-1.128-.038.103h.747l-.026-.077-.348-.98-.335.954ZM61.266 45.164l-1.597 2.178 1.745 2.21v.058h-1.366l-1.34-1.746v1.746h-1.102V45.1h1.103v1.752l1.249-1.752h1.308v.064ZM67.968 45.029c1.289 0 2.339 1.005 2.339 2.332 0 1.309-1.05 2.313-2.339 2.313s-2.332-.985-2.332-2.313a2.307 2.307 0 0 1 2.332-2.332Zm1.23 2.332c0-1.7-2.467-1.707-2.467 0 0 1.701 2.468 1.689 2.468 0ZM75.738 49.61h-1.101V45.1h.876l1.185 1.746 1.186-1.746h.863v4.51h-1.095v-2.23l-.651.96h-.612l-.65-.973v2.243ZM86.519 45.1v4.51h-1.102v-3.447h-1.186v3.447H83.13V45.1h3.389ZM93.775 48.947h-1.54l-.251.663h-1.18l1.804-4.562h.787l1.875 4.562h-1.243l-.252-.663Zm-1.102-1.128-.038.103h.747l-.026-.077-.348-.98-.335.954ZM100.598 46.8h1.185v-1.7h1.102v4.51h-1.102v-1.746h-1.185v1.746h-1.102V45.1h1.102v1.7ZM109.683 49.61v-2.288l-1.669 2.288h-.735V45.1h1.089v2.28l1.643-2.28h.767v4.51h-1.095ZM117.564 49.61v-2.288l-1.669 2.288h-.735V45.1h1.089v2.28l1.643-2.28h.767v4.51h-1.095Zm.483-4.723h-1.856v-.902h1.856v.902Z" fill="#fff"/><path d="M125.411 20.28c-.057 3.567-1.063 6.914-2.426 9.926h20.89l5.314-9.925h-23.778ZM117.568.02c3.174 2.611 5.082 6.002 6.648 9.926h30.49L160 .02h-42.432Z" fill="#E5554F"/><path d="M161.44 36.001v-11.44h1.392v9.52l6.176-9.52h1.392v11.44h-1.392v-9.52l-6.176 9.52h-1.392Zm11.94-11.44h1.392v5.184h6.016v-5.184h1.392v11.44h-1.392v-5.088h-6.016v5.088h-1.392v-11.44Zm11.687 0h3.44c2.454 0 3.68.987 3.68 2.96v.064c0 1.216-.576 2.021-1.728 2.416.822.192 1.408.507 1.76.944.352.437.528 1.035.528 1.792v.064c0 1.056-.336 1.856-1.008 2.4-.661.533-1.578.8-2.752.8h-3.92v-11.44Zm3.888 10.352c1.622 0 2.432-.71 2.432-2.128v-.064c0-.715-.208-1.237-.624-1.568-.416-.341-1.082-.512-2-.512h-2.336v4.272h2.528Zm-.448-5.36c.832 0 1.424-.155 1.776-.464.363-.32.544-.837.544-1.552v-.064c0-.64-.192-1.104-.576-1.392-.373-.288-.965-.432-1.776-.432h-2.048v3.904h2.08Zm6.513-4.992h6.672v1.136h-5.28v3.888h4.256v1.136h-4.256v4.144h5.568v1.136h-6.96v-11.44Zm13.691 11.584c-1.654 0-2.96-.523-3.92-1.568-.95-1.045-1.424-2.453-1.424-4.224v-.128c0-1.696.506-3.093 1.52-4.192 1.013-1.099 2.298-1.648 3.856-1.648 1.248 0 2.298.325 3.152.976.864.65 1.36 1.573 1.488 2.768h-1.376c-.16-.885-.502-1.547-1.024-1.984-.512-.437-1.254-.656-2.224-.656-1.184 0-2.139.432-2.864 1.296-.726.853-1.088 1.995-1.088 3.424v.128c0 1.461.346 2.608 1.04 3.44.704.821 1.669 1.232 2.896 1.232.949 0 1.722-.235 2.32-.704.608-.48.986-1.179 1.136-2.096h1.296c-.192 1.29-.71 2.272-1.552 2.944-.843.661-1.92.992-3.232.992Zm9.099-10.448h-3.328v-1.136h8.048v1.136h-3.328v10.304h-1.392V25.697Zm6.521 10.304v-11.44h1.392v9.52l6.176-9.52h1.392v11.44h-1.392v-9.52l-6.176 9.52h-1.392Zm20.611 2.08-.08-2.08h-8.688v-11.44h1.392v10.272h5.856V24.561h1.392v10.272h1.28v3.248h-1.152Zm2.92-2.08v-11.44h1.392v9.52l6.176-9.52h1.392v11.44h-1.392v-9.52l-6.176 9.52h-1.392Zm17.044-1.008c1.258 0 2.256-.432 2.992-1.296.746-.864 1.12-1.995 1.12-3.392v-.128c0-1.323-.374-2.427-1.12-3.312-.747-.885-1.755-1.328-3.024-1.328-1.302 0-2.326.432-3.072 1.296-.747.853-1.12 1.979-1.12 3.376v.128c0 1.365.4 2.485 1.2 3.36.81.864 1.818 1.296 3.024 1.296Zm0 1.152c-1.664 0-3.024-.555-4.08-1.664-1.056-1.12-1.584-2.496-1.584-4.128v-.128c0-1.653.522-3.035 1.568-4.144 1.056-1.11 2.41-1.664 4.064-1.664 1.653 0 2.997.555 4.032 1.664 1.034 1.099 1.552 2.47 1.552 4.112v.128c0 1.643-.518 3.024-1.552 4.144-1.035 1.12-2.368 1.68-4 1.68Zm7.864-11.584h1.392v5.184h6.016v-5.184h1.392v11.44h-1.392v-5.088h-6.016v5.088h-1.392v-11.44Zm11.688 0h1.392v5.184h6.016v-5.184h1.392v11.44h-1.392v-5.088h-6.016v5.088h-1.392v-11.44Zm14.759 0h1.824l3.872 11.44h-1.376l-1.12-3.296h-4.72l-1.104 3.296h-1.312l3.936-11.44Zm-1.136 7.04h3.968l-1.984-5.888-1.984 5.888Zm12.464-5.92c-.832 0-1.462.155-1.888.464-.416.299-.624.832-.624 1.6v.064c0 1.408.837 2.112 2.512 2.112h1.952v-4.24h-1.952Zm-3.344 10.32h-1.568l3.744-5.072c-1.824-.33-2.736-1.37-2.736-3.12v-.064c0-1.12.368-1.93 1.104-2.432.736-.501 1.701-.752 2.896-.752h3.248v11.44h-1.392v-4.976h-1.68l-3.616 4.976Zm-145.665 4.56h1.392v5.504l4.976-5.52h1.552l-5.088 5.568 5.344 5.888h-1.68l-5.104-5.584v5.584h-1.392v-11.44Zm14.01 10.432c1.259 0 2.256-.432 2.992-1.296.747-.864 1.12-1.995 1.12-3.392v-.128c0-1.323-.373-2.427-1.12-3.312-.746-.885-1.754-1.328-3.024-1.328-1.301 0-2.325.432-3.072 1.296-.746.853-1.12 1.979-1.12 3.376v.128c0 1.365.4 2.485 1.2 3.36.811.864 1.819 1.296 3.024 1.296Zm0 1.152c-1.664 0-3.024-.555-4.08-1.664-1.056-1.12-1.584-2.496-1.584-4.128v-.128c0-1.653.523-3.035 1.568-4.144 1.056-1.11 2.411-1.664 4.064-1.664 1.654 0 2.998.555 4.032 1.664 1.035 1.099 1.552 2.47 1.552 4.112v.128c0 1.643-.517 3.024-1.552 4.144-1.034 1.12-2.368 1.68-4 1.68Zm7.865-11.584h1.936l3.536 8.912 3.424-8.912h1.92v11.44h-1.392v-9.632l-3.792 9.632h-.432l-3.92-9.632v9.632h-1.28v-11.44Zm20.855 1.168h-5.856v10.272h-1.392v-11.44h8.64v11.44h-1.392V41.729Zm7.436-1.168h1.824l3.872 11.44h-1.376l-1.12-3.296h-4.72l-1.104 3.296h-1.312l3.936-11.44Zm-1.136 7.04h3.968l-1.984-5.888-1.984 5.888Zm8.845-7.04h1.392v5.184h6.016v-5.184h1.392v11.44h-1.392v-5.088h-6.016v5.088h-1.392v-11.44Zm11.592 11.44v-11.44h1.392v9.52l6.176-9.52h1.392v11.44h-1.392v-9.52l-6.176 9.52h-1.392Zm15.635-10.32c-.832 0-1.461.155-1.888.464-.416.299-.624.832-.624 1.6v.064c0 1.408.838 2.112 2.512 2.112h1.952v-4.24h-1.952Zm-3.344 10.32h-1.568l3.744-5.072c-1.824-.33-2.736-1.37-2.736-3.12v-.064c0-1.12.368-1.93 1.104-2.432.736-.501 1.702-.752 2.896-.752h3.248v11.44h-1.392v-4.976h-1.68l-3.616 4.976Z" fill="#fff"/></symbol><symbol fill="none" viewBox="0 0 160 53" id="logo-footer" xmlns="http://www.w3.org/2000/svg"><path d="M97.384.534c-11.722 0-21.217 9.142-21.217 21.217 0 12.073 9.495 21.04 21.217 21.04s21.275-9.143 21.275-21.04c0-12.075-9.553-21.217-21.275-21.217Zm-.235 32.762c-5.568-.058-11.018-3.869-11.018-11.545 0-7.68 5.45-11.488 11.018-11.606 5.685-.117 11.43 3.752 11.43 11.606 0 7.736-5.745 11.604-11.43 11.545ZM16.921.535H0v42.213h10.224V30.311h6.697c9.687 0 14.59-7.294 14.709-14.59C31.75 8.309 26.846.536 16.92.536Zm0 20.15h-6.697V10.458h6.697c3.17 0 4.724 2.692 4.724 5.204 0 2.45-1.555 5.021-4.724 5.021ZM70.28 15.721C70.4 8.307 65.496.534 55.57.534H38.65v42.214h10.225V30.311h2.785l8.322 12.368h11.263L62.053 29c5.393-2.42 8.138-7.846 8.227-13.278ZM48.875 10.46h6.696c3.17 0 4.723 2.69 4.723 5.203 0 2.45-1.554 5.022-4.723 5.022h-6.696V10.459Z" fill="#fff"/><path d="M137.596 42.524H0v9.925h132.297l5.299-9.925Z" fill="#E5554F"/><path d="M5.877 50.143H4.775v-4.51H7.74v1.05H5.877v3.46ZM13.796 45.633c2.114 0 2.108 3.17 0 3.17h-.624v1.34h-1.103v-4.51h1.727Zm0 2.133c.683 0 .683-1.063 0-1.063h-.624v1.063h.624ZM20.381 50.149l.67-1.534-1.45-2.983h1.224l.458.941.368.876.315-.863.412-.954h1.225l-2.03 4.517h-1.192ZM31.252 45.633v4.51h-1.101v-3.447h-1.186v3.447h-1.102v-4.51h3.39ZM39.023 45.633v4.51H37.92v-3.447h-1.186v3.447h-1.101v-4.51h3.389ZM46.279 49.48h-1.54l-.252.663H43.31l1.803-4.562h.787l1.875 4.562H46.53l-.251-.664Zm-1.102-1.128-.038.103h.747l-.026-.077-.348-.98-.335.954ZM61.266 45.697l-1.597 2.178 1.745 2.21v.058h-1.366l-1.34-1.746v1.746h-1.102v-4.51h1.103v1.752l1.249-1.752h1.308v.064ZM67.968 45.562c1.289 0 2.339 1.005 2.339 2.332 0 1.309-1.05 2.313-2.339 2.313s-2.332-.985-2.332-2.313a2.307 2.307 0 0 1 2.332-2.332Zm1.23 2.332c0-1.7-2.467-1.707-2.467 0 0 1.701 2.468 1.689 2.468 0ZM75.74 50.143h-1.102v-4.51h.876l1.185 1.745 1.186-1.745h.863v4.51h-1.095v-2.23l-.651.96h-.612l-.65-.973v2.243ZM86.519 45.633v4.51h-1.102v-3.447h-1.186v3.447H83.13v-4.51h3.389ZM93.775 49.48h-1.54l-.251.663h-1.18l1.804-4.562h.787l1.875 4.562h-1.243l-.252-.664Zm-1.102-1.128-.038.103h.747l-.026-.077-.348-.98-.335.954ZM100.598 47.334h1.185v-1.701h1.102v4.51h-1.102v-1.746h-1.185v1.746h-1.102v-4.51h1.102v1.7ZM109.684 50.143v-2.288l-1.669 2.288h-.735v-4.51h1.089v2.28l1.643-2.28h.767v4.51h-1.095ZM117.564 50.143v-2.288l-1.669 2.288h-.735v-4.51h1.089v2.28l1.643-2.28h.767v4.51h-1.095Zm.483-4.723h-1.856v-.902h1.856v.902Z" fill="#fff"/><path d="M125.411 20.814c-.057 3.566-1.063 6.913-2.426 9.924h20.89l5.314-9.924h-23.778ZM117.568.553c3.174 2.611 5.082 6.002 6.648 9.926h30.49L160 .553h-42.432Z" fill="#E5554F"/></symbol><symbol fill="none" viewBox="0 0 24 25" id="mail" xmlns="http://www.w3.org/2000/svg"><path d="M17 4.3H7c-3 0-5 1.5-5 5v7c0 3.5 2 5 5 5h10c3 0 5-1.5 5-5v-7c0-3.5-2-5-5-5Zm.47 6.09-3.13 2.5c-.66.53-1.5.79-2.34.79-.84 0-1.69-.26-2.34-.79l-3.13-2.5a.77.77 0 0 1-.12-1.06c.26-.32.73-.38 1.05-.12l3.13 2.5c.76.61 2.05.61 2.81 0l3.13-2.5c.32-.26.8-.21 1.05.12.26.32.21.8-.11 1.06Z" fill="#fff"/></symbol><symbol fill="none" viewBox="0 0 24 25" id="phone" xmlns="http://www.w3.org/2000/svg"><path d="M11.05 15.75 9.2 17.6c-.39.39-1.01.39-1.41.01-.11-.11-.22-.21-.33-.32a28.414 28.414 0 0 1-2.79-3.27c-.82-1.14-1.48-2.28-1.96-3.41C2.24 9.47 2 8.38 2 7.34c0-.68.12-1.33.36-1.93.24-.61.62-1.17 1.15-1.67.64-.63 1.34-.94 2.08-.94.28 0 .56.06.81.18.26.12.49.3.67.56l2.32 3.27c.18.25.31.48.4.7.09.21.14.42.14.61 0 .24-.07.48-.21.71-.13.23-.32.47-.56.71l-.76.79c-.11.11-.16.24-.16.4 0 .08.01.15.03.23.03.08.06.14.08.2.18.33.49.76.93 1.28.45.52.93 1.05 1.45 1.58.1.1.21.2.31.3.4.39.41 1.03.01 1.43ZM21.97 19.13c0 .28-.05.57-.15.85-.03.08-.06.16-.1.24-.17.36-.39.7-.68 1.02-.49.54-1.03.93-1.64 1.18-.01 0-.02.01-.03.01-.59.24-1.23.37-1.92.37-1.02 0-2.11-.24-3.26-.73s-2.3-1.15-3.44-1.98c-.39-.29-.78-.58-1.15-.89l3.27-3.27c.28.21.53.37.74.48.05.02.11.05.18.08.08.03.16.04.25.04.17 0 .3-.06.41-.17l.76-.75c.25-.25.49-.44.72-.56.23-.14.46-.21.71-.21.19 0 .39.04.61.13.22.09.45.22.7.39l3.31 2.35c.26.18.44.39.55.64.1.25.16.5.16.78Z" fill="#fff"/></symbol><symbol fill="none" viewBox="0 0 30 31" id="receiving" xmlns="http://www.w3.org/2000/svg"><path d="M16.167 4.019v.533c.31.061.612.137.884.214.623.172.992.843.827 1.492-.166.65-.807 1.036-1.43.864-.53-.147-1.025-.249-1.467-.254-.355-.005-.715.086-.944.223a.564.564 0 0 0-.17.153.25.25 0 0 0-.034.142v.03c.01.01.044.061.16.132.283.178.7.315 1.333.513l.043.015c.54.168 1.26.397 1.843.777.666.437 1.269 1.163 1.283 2.28a2.82 2.82 0 0 1-1.298 2.463 3.534 3.534 0 0 1-1.035.447v.539c0 .675-.52 1.218-1.167 1.218-.646 0-1.166-.543-1.166-1.219v-.578c-.462-.117-.885-.27-1.245-.396-.102-.036-.2-.072-.292-.102-.612-.213-.943-.904-.739-1.544.205-.64.866-.985 1.478-.772l.355.127c.661.234 1.138.401 1.648.422.389.015.734-.082.933-.208a.459.459 0 0 0 .156-.148c.02-.03.044-.091.039-.208v-.01c0-.05 0-.107-.195-.234-.277-.182-.695-.325-1.317-.523l-.092-.03c-.525-.163-1.216-.381-1.77-.731-.656-.412-1.288-1.118-1.293-2.24-.005-1.163.627-1.96 1.347-2.407a3.7 3.7 0 0 1 .982-.416v-.564c0-.675.52-1.219 1.166-1.219.647 0 1.167.544 1.167 1.219h.01ZM28.62 19.878c.637.904.452 2.174-.413 2.839l-6.154 4.738A6.43 6.43 0 0 1 18.13 28.8H2.556C1.696 28.8 1 28.074 1 27.175v-3.25c0-.899.695-1.625 1.556-1.625h1.788l2.183-1.828a6.045 6.045 0 0 1 3.889-1.422h7.695c.86 0 1.556.726 1.556 1.625 0 .9-.696 1.625-1.556 1.625H14.222c-.428 0-.778.366-.778.813 0 .447.35.812.778.812h5.863l5.819-4.479c.865-.665 2.08-.472 2.717.432ZM10.41 22.3h-.044.044Z" fill="#242426"/></symbol><symbol fill="none" viewBox="0 0 30 31" id="smartmoney" xmlns="http://www.w3.org/2000/svg"><path d="M25.203 15.052v.154l3.158-3.267a2.687 2.687 0 0 0 0-3.713L24.82 4.57a2.476 2.476 0 0 0-3.588 0l-1.817 1.88a3.308 3.308 0 0 0-.376-.024h-5.075c-1.681 0-3.063 1.313-3.244 3h-.018v5.626c0 1.035.81 1.875 1.812 1.875 1.001 0 1.813-.84 1.813-1.875v-4.125H21.578c2.002 0 3.625 1.678 3.625 3.75v.375Zm-9.425-2.625v2.625c0 1.865-1.46 3.375-3.263 3.375s-3.262-1.51-3.262-3.375v-5.56c-1.627.29-2.982 1.514-3.444 3.197l-.748 2.7-3.317 3.431a2.687 2.687 0 0 0 0 3.713l3.54 3.66a2.476 2.476 0 0 0 3.588 0l1.708-1.767c.041 0 .082.005.123.005h7.25c1.2 0 2.175-1.008 2.175-2.25 0-.262-.046-.515-.123-.75h.123c1.2 0 2.174-1.008 2.174-2.25 0-.6-.226-1.144-.598-1.547 1.165-.234 2.044-1.294 2.049-2.569v-.018c-.005-1.444-1.138-2.616-2.538-2.616h-5.438v-.004Z" fill="#fff"/></symbol></svg>