<svg width="1687" height="302" fill="none" xmlns="http://www.w3.org/2000/svg"><g opacity=".03" fill-rule="evenodd" clip-rule="evenodd" fill="#fff" clip-path="url(#a)"><path d="M1645.75 267.734h241.58c60.4 0 126.29-.362 178.45.363-54.91 0-112.56 0-167.47.362-38.43 0-76.86.362-112.55.725-5.49 0-2.75.724 2.74.724 101.58 1.087 197.66 2.536 326.69 1.087 19.22 0 54.91.362 82.36.362 16.47 0 30.2.363 43.92.363-10.98 0-24.7.362-35.69.362-120.79-.362-244.33.725-362.37-.362h-30.2c-101.58.724-205.9.362-310.22 0h-43.92c-60.4 1.811-153.74 1.087-236.1 1.087H190.749c-16.471 0-35.688-.363-52.16-.363 19.217 0 38.434-.362 57.651-.362h65.886c274.528.725 543.566-1.087 815.344-.725 19.22 0 41.18 0 60.4-.362 46.67-.362 90.6-.725 134.52-1.087-49.42 0-98.83-.362-148.25-.362H816.673c-21.962 0-43.925-.362-65.887-.362 27.453 0 52.161-.363 79.613-.363h571.021c19.21 0 35.69-.362 54.9-.362-19.21 0-38.43-.362-57.65-.362h-109.81c-30.2 0-60.4-.363-93.34-.363 32.94 0 68.63-.362 101.58-.362 112.55 0 230.6.362 348.65.362Zm-285.51 2.174c-16.47.362-27.45.362-38.44.362 19.22 0 35.69.363 54.91.363 10.98 0 21.96-.363 32.94-.363-19.21 0-35.69-.362-49.41-.362Zm1336.95-53.982h-348.65c8.23.362 30.19 1.086 24.7 1.086-46.67.725-178.44.725-214.13-.362-21.96-.724-24.71-.724-54.9-.362-118.05 1.449-126.29 1.449-255.31 0-35.69-.362-57.66-.725-93.34 0h-43.93c5.49-.725-19.22-1.449-57.65-1.087-79.61.725-150.99-1.449-227.86 0-63.14-1.449-148.24-.362-222.37-.725-24.7 0-49.41-.362-74.12-.724-10.98 0-21.96-.363-30.2-.363 10.98 0 21.97-.362 32.95-.362h109.81c142.75 0 282.76.362 420.03-.724 148.24-1.087 307.47-.725 463.95-.725h285.51c16.47 0 30.2.362 46.67.362-16.47.363-27.46.725-46.67.725-41.18.362-82.36.362-123.54.362-96.08 0-200.41-.362-280.02 1.449-24.71.363-109.81.363-164.72.363-10.98 0-24.7.362-35.68.362 8.23 0 19.21.362 30.19.362h1185.96c19.22 0 38.44.363 57.66.363-16.48 0-32.95.362-49.42.362-115.3-.362-225.11-.362-334.92-.362ZM1934 213.389c-10.98-.362-16.47-.724-21.96-.724-19.22 0-38.44 0-57.65.362 5.49 0 10.98.362 16.47.362H1934Zm496.89-43.838c-10.99 0-63.15-.362-115.31-.724-27.45 0-63.14-.363-85.1 0-178.44 1.811-356.89.362-535.33 0-52.16-1.45-101.58 0-104.32.362-2.75 1.449-57.65 1.087-104.32 1.087-10.98 0-21.96-.362-32.94-.362 10.98 0 21.96-.363 35.68-.363 19.22 0 68.64 0 32.95-.724-13.73-.363-54.91-.725-57.65-.725-41.18.725-96.09.362-142.76.362H399.378c-13.726 0-24.707 0-38.434-.362 13.727 0 24.708-.362 38.434-.362h197.66c54.906 0 98.83-.725 164.717 0 54.906.362 129.028 0 194.915 0h197.66c167.46-.363 337.67-.725 505.13-.725 10.98 0 348.65.362 356.89.362 46.67 1.087 109.81.725 161.97.363 140.01-.363 263.55 1.087 398.07.724 8.23 0 13.72.363 21.96.363-10.98 0-21.96.362-35.69.362-30.2.362-60.4.362-131.77.362Zm-516.12-.724c32.95-.363 46.67-.363 57.65-.363-13.72 0-24.7-.362-38.43-.362-10.98 0-24.71 0-35.69.362 8.24 0 13.73 0 16.47.363Zm-41.16-48.911c277.27-.363 560.04 1.449 848.29.724 13.73 0 30.2.362 46.67.362-10.98 0-24.71.363-35.69.363h-109.81c-79.61.362-164.72-.725-238.84.362 76.87 0 156.48.362 236.1.362h43.92c5.49 0 16.47.363 13.73.363-2.75.362-10.98.362-16.48.362-170.2.362-337.66.725-507.87.725-32.95 0-32.95 0-10.98-.725 2.74 0-10.98-.725-16.47-.725H1994.4c-19.22 0-35.69.363-52.16.363 19.22 0 43.93 0 54.91.362 13.72.362 19.21.725 27.45 1.087-16.47 0-30.2 0-46.67-.362-87.85-.363-134.52-2.174-241.58-1.812-5.5 0-10.99 0-16.48-.362 10.98 0 21.97-.363 30.2-.363h395.32c19.22 0 38.44-.362 54.91-.362-19.22 0-38.44-.362-57.65-.362h-592.98c-16.48 0-35.69-.362-52.16-.362 19.21 0 38.43-.363 57.65-.363 104.32.363 205.89.363 318.45.363ZM646.463 53.253h417.287c85.1 0 161.97.362 249.82 0 79.61-.363 172.95-.363 244.33.724 41.17.725 85.1.725 137.26.725 5.49 0 13.73.362 16.47.362 0 0-8.23.362-13.72.362h-549.06c-65.89 0-126.28 0-175.699-1.087-16.472-.362-63.141-.362-96.085-.362H459.784c-79.614 0-156.481.725-236.095 1.087-54.905.362-112.556.362-167.462 0-16.471 0-30.198-.362-46.67-.724 13.727 0 27.453-.363 43.925-.363 41.18 0 85.104-.362 131.774-.362h197.66c87.849-.362 175.698-.362 263.547-.362Zm938.887 72.822c159.23 1.087 323.94.725 488.66.725 27.45 0 54.91.362 79.61.362-30.19 0-65.88.724-90.59.362-98.83-.362-192.17 1.087-296.49 0-32.94-.362-87.85.362-134.52.725-13.72 0-27.45.362-41.18.362 13.73 0 24.71.362 38.44.362h307.47c-2.75.725 5.49 2.174-54.91 1.45-68.63-.725-134.52-.725-205.89-.725h-153.74c-49.41 0-118.05.362-145.5-.362-60.4-1.087-74.12.724-126.28.362-101.58-1.087-216.88-.362-326.691-.725-112.556-.362-236.094.725-345.905-.724 115.302 0 230.604-.363 345.905-.363 189.421 0 381.591 0 590.231.363 13.73 0 5.5 0 0-.363-5.49 0-13.72.363-19.21.363 8.23 0 16.47.362 27.45.362 2.75 0 8.24 0-5.49-.362-16.47-.725-38.43-1.812 32.94-1.812 10.98.363 24.71 0 35.69-.362Zm826.33 135.501c-167.46-.363-337.67-.725-505.13-1.087h-175.7c-46.67 0-85.1 1.449-134.52.362-5.49 0-10.98.362-16.47.362-54.91-.362-109.81-.362-164.72-.724 43.93-.363 90.6-1.087 134.52-1.087 203.15 0 398.07-1.087 592.98-1.812h87.85c21.96 0 41.18.363 54.91.725 8.23.362-10.98.725-35.69 1.087-16.47.362-35.69.362-54.91.362-10.98 0-24.71.362-35.69.362 16.48 0 30.2.363 46.67.363h502.39c5.49 0 10.98 0 16.47.362-8.23 0-16.47.362-27.45.362-93.34 0-189.43 0-285.51.363Zm-304.73-2.899c-5.49 0-10.98-.362-16.47-.362-5.49 0-13.72.362-13.72.362 2.74.363 8.23.363 13.72.363s10.98 0 16.47-.363ZM1492 244.185c107.07.362 236.09-.362 362.38.725 49.41.362 131.77-.725 200.4 0 35.69-1.087 93.34-.725 140.01-.725 74.12 0 153.74-.725 222.37.362-68.63.725-145.5.725-219.62 1.087-118.05.725-249.82.725-376.11.725h-436.5c-52.16-2.174-142.75-.362-211.38-.725-24.71 0-46.67-.362-68.63-.362 21.96-.362 38.43-1.087 63.14-1.087H1492Zm-348.65-52.533H594.296c-35.689 0-71.377 0-101.575-.362-19.217 0-32.944-.363-46.67-.725 16.471 0 30.198-.362 46.67-.362h219.622c10.981 0 24.707-.363 35.689-.363-16.472 0-35.689-.362-52.161-.362-10.981 0-21.962-.362-32.943-.362 5.491 0 10.981-.363 16.472-.363h323.94c38.44 0 76.87.363 118.05.725 52.16.362 109.81-.362 156.48.362-49.41 0-98.83.363-145.5.363h-87.85c-8.23 0-13.72.362-16.47.362 0 0 8.24.362 13.73.362h724.75c13.73 0 24.71 0 38.43.363-13.72 0-24.7.362-38.43.362h-623.18ZM2702.68 47.093c-76.87 0-164.72 0-255.31-.724-79.62-.725-183.94.724-269.04-.725-24.71-.362-85.1 0-126.28 0h-373.36c-30.2 0-60.4-.362-90.6-.362 30.2-.362 60.4-.725 90.6-.725 93.34-.362 203.15-.724 274.53 0 79.61.725 150.99.363 227.86.725h395.32c98.83 0 203.15-.362 271.78 1.45 8.23.361 35.69.361 54.9.361-19.21 0-35.68.363-54.9.363-43.93-.363-87.85-.363-145.5-.363Zm-2037-16.665 461.21-1.087h483.17c32.94 0 68.63.362 101.57.362-32.94.362-63.14.725-98.83 1.087h-326.69c-76.86 0-156.48.725-233.35.725-148.241 0-296.486.724-444.731-.725-60.396-.362-140.009-.362-211.386-.362 74.122-1.087 159.226-.363 238.839-.363 13.726 0 21.962 0 30.198.363Zm1290.28 6.884h-746.71c-19.22 0-38.44-.363-57.65-.363 21.96 0 43.92-.362 65.88-.362 107.07 0 216.88-.362 323.95-.362h43.92c-5.49-.725 13.73-1.087 60.4-1.087h21.96c175.7 0 354.14-.725 527.09.362h-540.82c-8.23 0-13.72.362-16.47.362 0 0 8.24.363 13.73.363h1076.15c13.72 0 24.7 0 38.43.362-13.73 0-27.45.362-41.18.362-255.31.363-513.37.363-768.68.363ZM440.563 128.611c-126.283-1.087-271.783-.725-411.792-1.087-8.236 0-21.962-.725-24.708-.725 0 0 30.199-.362 32.944-.362 38.434.725 65.887.362 109.811 0 52.16-.724 118.047-1.087 178.443-1.811 5.491 0 27.453.362 27.453.362-2.745 1.449 21.962.725 65.887.362 96.085-.362 183.933-1.449 288.254-1.087 41.179.363 82.359.363 126.283.363-30.198 1.087-85.104.362-126.283.362-27.453 0-54.905 0-79.613.362-19.217 0-32.943.363-46.67.725 16.472 0 32.944.362 52.161.362h175.698c10.981 0 21.962.362 35.688.362-10.981 0-21.962.363-32.943.363h-197.66c-60.397.724-112.557 1.087-172.953 1.449Zm524.359-11.956c-140.01.362-288.255-.725-422.774.725-76.867-1.087-178.443-.363-263.546-1.087-5.491 0-13.727-.363-10.982-.363 2.746 0 8.236-.362 13.727-.362h634.16c16.471 0 32.943-.362 46.669-.362-10.981 0-24.707-.363-35.688-.363h-21.963c-63.141-.362-137.264.725-194.914-.362 63.141 0 129.028 0 192.169-.362 63.142 0 112.56 0 150.99 1.087 5.49 0 27.45.362 30.2.362 43.92-.725 65.89-1.811 150.99-.725 38.43.363 115.3 0 172.95 0 43.93 0 96.09-.724 129.03.363-41.18 0-90.59 0-123.54.362-145.5 1.812-299.23.725-447.478 1.087Zm752.208 89.126c-43.93.362-112.56-.725-131.78.724H915.506c-32.943 0-76.868.363 41.179-.724h312.965c16.47 0 32.94-.363 46.67-.363-10.98 0-24.71-.362-35.69-.362H868.836c-10.981 0-21.962.362-32.943.362 13.726 0 27.452.363 43.924.363h76.868c-183.934-1.087-263.547-.725-337.669-.725 19.217-.362 38.434-.724 57.651-.724h678.083c118.05 0 230.6 1.086 351.4.724l10.98.725Zm-315.71-.363c-5.49 0-10.98-.362-16.47-.362-5.49 0-13.73.362-13.73.362 2.75.363 8.24.363 13.73.363s10.98-.363 16.47-.363Zm54.9-45.287h263.54c27.46 0 60.4 0 79.62-.362 167.46-2.174 354.14-1.087 532.58-.725 32.95 0 65.89.362 98.83.362 10.98 0 21.96.363 32.95.363-5.49 0-10.99.362-16.48.362-63.14.362-134.51.725-192.17.725-120.79-.725-230.6-1.087-343.16.362h-724.75c-13.73 0-24.71 0-38.43-.362 13.72 0 27.45-.363 41.18-.363 90.59-.362 178.44-.362 266.29-.362ZM45.246 214.839c-65.886-1.087-2.745-2.174-35.688-3.261 19.217 0 38.434-.362 57.65-.362h436.5c107.066 0 222.368-.725 323.943.362-107.066 0-214.132 0-321.198.362h-43.924c-5.491 0-16.472.363-13.727.363 2.746.362 8.236.362 16.472.362h21.962c71.378 0 142.755.362 211.387.362-74.123 1.087-175.698.725-236.094.362-123.538-1.086-225.113.363-340.415.363-52.16 0-27.453 1.087-32.943 1.449-16.472-.362-30.198-.362-43.925-.362Zm126.283-2.536c-5.49 0-10.981-.363-16.472-.363-5.49 0-13.726.363-13.726.363 2.745.362 8.236.362 13.726.362 5.491 0 8.236 0 16.472-.362Zm1540.101-23.55h-285.51c-19.22 0-38.44-.362-57.65-.362 16.47 0 32.94-.362 49.41-.362h329.44c19.21 0 38.43-.363 57.65-.363-19.22 0-35.69-.362-54.91-.362-35.69 0-71.38 0-107.06-.362-5.49 0-13.73-.362-13.73-.725 0-.362 8.24-.724 16.47-.724 35.69 0 74.12-.363 107.07 0 142.75.724 274.53 0 409.04-.725 21.97 0 52.16 0 79.62.362-19.22.363-41.18 1.087-52.16 1.087-49.42-.362-85.11 1.812-137.27.363-21.96.362-41.18.724-63.14 1.086 13.73 0 27.45.363 41.18.363 10.98 0 24.71.362 35.69.362-8.24 0-16.47.362-24.71.362h-329.43ZM308.791 142.379h499.641c52.16.362 101.575.725 150.99 1.087-57.651.362-129.028 1.087-170.207 1.087-98.83-.725-181.189.362-271.783 0-90.594-.363-189.424 0-282.764 0-142.754 0 27.453-1.087-16.472-1.449 35.689 0 87.849.362 90.595-.725ZM2367.75 278.242c-192.17 0-373.36.724-557.29 1.449-115.31.362-247.08 0-370.62 0-10.98 0-21.96-.362-32.94-.362 10.98 0 21.96-.363 35.69-.363h197.66c60.4 0 118.05-.362 178.44-.724 65.89-.363 140.01.362 200.41-.363-71.38 0-140.01-.362-211.39-.362h-65.89c-8.23 0-16.47-.362-19.21-.362 0 0 8.23-.363 13.72-.363 120.8 0 247.08 0 365.13.363 46.67 0 115.3.724 137.26.362 65.89-1.087 109.81 0 164.72 0h197.66c10.98 0 24.7.362 35.69.362-16.48 0-32.95.363-49.42.363h-219.62Zm-1485.201 1.811h285.511c52.16 0 101.57.363 153.73.363-49.41.362-98.83.724-150.99 1.086-71.37.363-145.5 0-216.874 0-126.282.363-255.311-.724-378.848.725-38.434.362-98.83 0-150.991 0-2.745 0-5.49-.362-8.235-.725 46.669 0 96.084 0 30.198-1.086 13.726 0 27.452-.363 41.179-.363h395.32ZM1330.04 40.934h-197.66c-10.98 0-19.21-.362-30.19-.362 10.98 0 21.96-.362 35.68-.362h87.85c16.47 0 30.2-.363 46.67-.363-10.98 0-24.7-.362-35.69-.362h-219.62c-13.72 0-27.451-.362-41.178-.362 13.727 0 24.708-.362 38.438-.362h614.94c27.45 0 63.14.724 82.36.362 32.94-.362 49.41-.362 49.41.362 0 .362-16.47.725-30.2.725-134.51.362-266.29.724-400.81.724Zm131.78 22.463c-57.65-.362-131.78.362-197.66-.362-13.73-.363-79.62.362-98.83.724-49.42 1.087-65.89 0-93.34-.362 16.47-.362 32.94-.362 49.41-.725 208.64-1.811 208.64-1.811 491.41-.724h87.85c49.41 0 98.83 0 145.5.362-52.16.362-98.83 1.087-153.74 1.087-74.12.362-148.24 0-230.6 0Zm914.17 157.601c-60.39-.363-118.04-.725-178.44-.725h-922.41c-13.73 0-24.71 0-38.44-.362 13.73 0 27.45-.363 43.93-.363h636.9c68.63 0 129.03-.724 208.64 0 76.87.363 172.95 0 260.8 0h241.59c19.22 0 38.43.363 57.65.725-35.69-.362-38.43 1.087-98.83.362-54.91-.362-150.99-1.087-211.39.363Zm-1032.23 76.808c-98.83 0-197.66-.363-288.26.724-49.41.725-93.336-1.087-164.714 0-43.924.725-126.282 0-192.169 0h-197.66c-52.161 0-104.321-.362-156.481-.724-13.727 0-24.708-.363-35.689-.363 10.981 0 21.962-.362 32.943-.362 49.416 0 101.576 0 142.755.362 52.16.363 93.34.725 134.519 0 35.688-.724 63.141-.362 90.594 0 8.236 0 27.453.363 35.689.363 192.169-1.45 398.063-.363 595.723-.725 63.14 0 137.27-.725 192.17.362-63.14 0-126.28.363-189.42.363ZM693.132 171.725h197.66c41.18 0 82.359.362 120.788.362 2.75 0 2.75.362 0 .362-52.155.363-120.788 1.087-153.731.725-109.811-1.087-225.113-.362-337.669-.725-10.981 0-24.708.363-35.689.363 8.236 0 19.217.362 27.453.362h109.811c10.981 0 24.708.362 35.689.362-10.981 0-21.963.363-32.944.363H75.444c-10.98 0-21.962-.363-32.943-.363 10.981 0 21.962-.362 35.689-.362 24.707-.362 46.669-.362 71.377-.725h41.179c30.198 1.087 76.868 0 112.557.363 32.943.362 65.886.362 98.83.362 10.981 0 24.707-.362 35.688-.362-16.471 0-32.943-.363-49.415-.363-10.981 0-24.707-.362-35.688-.362 10.981 0 21.962-.362 32.943-.362h307.471Zm-507.879 85.141H89.168c-27.453 0-54.906 0-82.358-.363 13.726-.362 21.962-1.087 38.433-1.449 21.963-.724 49.416-.362 87.849-.362 35.689.362 90.595.724 118.047.362 137.265-1.087 269.038-.724 403.557 0h65.886c8.236 0 16.472.362 21.963.362 0 0-8.236.363-13.727.363h-21.962c-96.085 0-192.17-.363-285.509 0-87.849.724-172.953 1.449-236.094 1.087Zm804.366-55.07c57.651.362 109.811.724 164.721.724h161.97c63.14 0 126.28-.362 186.68-.362 10.98 0 21.96.362 35.68.362-10.98 0-21.96.363-35.68.363-321.2 1.449-647.89.724-971.833.724-13.726 0-30.198-.362-43.925-.362 13.727 0 24.708-.362 35.689-.362h241.585c79.613-.363 150.99-1.087 225.113-1.087Zm922.421-48.549h87.85c49.41 0 109.81-.362 150.99.363-43.93.362-87.85.724-134.52.724-19.22 0-41.18 0-60.4.363-57.65.724-79.61-1.812-150.99-.363-30.2.363-90.59.363-140.01.363-32.94 0-30.2 0-8.23.724 2.74 0 2.74.363 0 .363-74.13.724-205.9-.363-236.1-1.812-2.74 0 19.22-.362 32.94-.362 151 0 304.73-.363 458.47-.363ZM1651.23 15.573h-592.98c-13.73 0-24.71 0-38.43-.362 13.72 0 27.45-.362 38.43-.362h856.53c90.59 0 189.42.724 269.04-.725 5.49 0 46.66.362 71.37.725 10.98 0 21.96.362 30.2.362-13.73 0-30.2.362-43.92.362h-590.24ZM440.571 133.683H47.996c-16.472 0-30.198-.724-46.67-.724 13.727-.363 30.198-.725 43.925-.725 161.971.362 323.943-.724 485.914.725 74.123.724 172.953 0 260.802 0 13.726 0 24.707 0 38.434.362-13.727 0-24.708.362-38.434.362H440.571Zm713.769-22.462h263.55c10.98 0 21.96.362 32.94.362-10.98 0-24.71.362-35.69.362h-175.7c-19.21 0-43.92.363-49.41.725-13.73.725-27.45.362-52.16.362-131.78-.362-266.295-.724-398.068.363h-30.198c0-.363-2.745-1.087 8.236-1.087 57.651-.363 115.301-.725 175.698-1.087h260.802Zm387.08 61.229h-241.58c-19.22 0-38.44-.363-57.66-.363 21.97-.362 57.66-1.087 63.15-1.087 93.34 1.45 183.93-.362 274.52 0h285.51c21.97 0 46.67.363 68.64.363-27.46.362-54.91 1.087-85.11 1.087h-307.47ZM687.642 86.584c-76.868-.362-181.189.725-274.528-.724-41.179-.725-93.34 1.449-167.462 0-21.963-.362-109.811 0-156.481.362-54.906.362-52.16-.362-79.613-.724 16.471-.363 35.688-.725 52.16-.363 170.207.362 337.669-.362 510.622.725 101.575.724 230.604 0 348.651 0 13.726 0 24.707.362 38.434.362-13.727 0-24.708.362-38.434.362H687.642Zm230.595-2.898c-104.321-1.45-225.113.362-343.16 0-46.67 0-96.085-.362-140.009-.362-27.453 0-49.415-.363-74.123-.725 27.453 0 54.906 0 82.359-.362 82.358-.362 161.971 0 247.075-.725 93.339-.724 205.896.725 307.471 1.45 2.75 0 0 .362-2.745.362-19.217.362-41.179.362-76.868.362ZM388.404 27.891c-104.321.363-238.839-.724-359.632.725 0 0-27.452-.362-24.707-.725 0-.724-21.962-1.449 35.689-1.449h219.622c49.415 0 82.358 1.45 148.245.362 16.472-.362 82.358.363 123.538.363h175.698c13.726 0 30.198.362 43.924.362-19.217 0-38.434.362-57.651.362H388.404Zm359.637 117.386c98.83 0 200.405.362 299.239.362-96.089 1.087-200.409.363-299.239.363-214.132 0-422.773 1.449-636.905.724h-87.85c-5.49 0-16.471-.362-13.726-.362 2.746-.362 8.236-.362 16.472-.362h21.962c236.094.724 463.953-1.087 700.047-.725ZM1061 256.503c115.3 0 227.85.363 343.16.363-109.82 1.087-230.61.362-345.91.362-161.972 0-318.452 1.449-483.169.725h-65.887c-5.491 0-16.472-.363-13.726-.363 2.745-.362 10.981-.362 19.216-.362 87.849-.362 175.698-.725 266.293-.725 87.849 0 183.933.363 280.023 0-2.75.363-2.75 0 0 0ZM726.069 10.139H616.258c-57.651-.363-123.537.724-170.207-.363 54.905 0 115.302 0 167.462-.362 172.953-1.087 351.396-.724 527.097-.724 13.72 0 24.7.362 38.43.362-13.73 0-24.71.362-38.43.362-41.18.362-85.11.725-131.78.725H726.069ZM550.374 88.034H89.167c-13.726 0-24.707 0-38.434-.362 13.727 0 24.708-.363 38.434-.363h963.593c13.73 0 24.71 0 38.43.363-13.72 0-24.7.362-38.43.362H550.374ZM286.827 57.963h-87.848c-49.416 0-98.831 0-148.246-.362 46.67-.363 90.595-.725 137.264-1.087 24.708 0 57.651-.363 82.359 0 156.481.362 312.962.362 469.443 0 13.726 0 30.198.362 46.67.362-10.982 0-24.708.362-35.689.362-74.123.363-148.245.725-222.368.725H286.827Zm-211.39 126.08c-54.905 0-82.358-.362-76.868-1.449 2.746-.725 10.982-1.087 60.397-1.087 54.905 0 112.556 0 161.971-.362 38.434-.363 85.104 1.087 109.811-.363 30.198.363 60.397.363 87.849.725 8.236 0 5.491.362 8.236.725-131.773 0-230.603 1.811-351.396 1.811ZM1695.15 84.41h175.7c109.81-.361 19.22 1.088 35.69 1.45 13.72.362 54.9.725-2.75 1.087-76.86 0-153.73.362-225.11-.725-30.2-.362-74.12-.362-112.56-.724-35.69-.363-85.1.362-107.06-.363 35.69 0 68.63-.362 104.32-.362 43.92-.362 87.85-.362 131.77-.362ZM769.995 209.404c153.735 0 304.725.363 455.715.363v.362c-150.99 0-301.98.362-452.97.362-150.991 0-301.981 0-452.971-.362v-.362c148.245 0 299.235-.363 450.226-.363Zm-274.52 80.431h216.877c32.944 0 63.142.362 93.34.725 10.981 0 19.217.362 30.198.362-10.981 0-24.708.362-35.689.362-109.811-.362-222.367.362-334.924-.724-57.651-.363-140.009 0-211.386-.363-10.981 0-21.963-.362-32.944-.362 10.981 0 21.962-.362 35.689-.362 79.613.362 159.226.362 238.839.362ZM1006.1 156.509c-5.49 0-13.728.362-19.218.362H726.08c-54.905 2.174-123.537-.725-200.405.362-54.906.725-148.245.362-227.858.362-10.982 0-21.963-.362-35.689-.362 8.236 0 16.472-.362 21.962-.362 90.594.362 159.226-.725 244.33-.725h436.5c16.471 0 27.452.363 41.18.363Zm269.03 78.618c-104.32 0-211.39.363-312.964-.724-21.962-.362-71.377.724-109.811.724-38.434 0-76.868-.362-115.301-.724-10.982 0-21.963-.362-30.199-.362 10.982 0 24.708-.363 35.689-.363 112.557.363 219.623-.362 337.666.725 109.81.724 244.33 0 370.62.362 13.72 0 27.45.362 41.18.362-13.73 0-24.71.363-38.44.363-60.39-.363-118.05-.363-178.44-.363Zm749.46-137.674c-79.61.363-172.95-.724-241.58.725-60.4-1.45-142.76-.725-216.88-.725h-258.06c-32.94 0-76.87.363-76.87-.724 13.73-.363 30.2-.362 43.93-.725 49.41.362 93.34.725 153.73.725h516.12c35.69 0 79.61-.363 79.61.724ZM220.944 36.224H67.208c-19.216 0-38.433-.362-57.65-.362 21.962-.725 41.179-1.087 63.141-1.812 5.49 0 10.981.363 16.472.363 65.886 1.086 172.952-.363 236.094 1.087 8.236-.363 24.707-.363 27.453-.725 8.236-.725 19.217-1.087 43.924-.362l41.179 1.087c10.981.362 24.708.362 38.434.362-13.726 0-24.707.362-38.434.362-71.377.362-145.499 0-216.877 0Zm1595.006 23.55c-156.48-.362-304.72.363-444.73-.724 142.75 0 288.25-.362 431.01-.362 145.5 0 293.74-.725 433.75.362-142.75.362-285.51.362-420.03.724Z"/><path d="M1373.96 278.241H1176.3c-27.45 0-52.16-.362-76.87-.362 21.97 0 43.93-.362 65.89-.362 79.61 0 161.97.362 238.84 0 71.38-.362 134.52-1.087 205.9-1.449 13.72 0 52.16 0 54.9.362 5.49.362-63.14.725-8.23 1.449 0 0-10.99.725-19.22.725-87.85-.363-175.7-.363-263.55-.363ZM396.642 104.699c65.887 0 60.396 1.087 19.217 1.45-57.651.362-123.538 0-186.679-.363-32.943 0-63.141-.362-96.085-.362-41.179 0-82.358-.362-123.537-.362 30.198-1.087 90.594 0 123.537-.363 82.359-1.087 175.698-.724 263.547-.724v.724h-32.943c-2.746 0 5.49.363 8.236.363 8.235 0 16.471 0 24.707-.363Zm439.242 114.125c-156.481.362-318.452-1.449-491.405-.724-5.491 0-21.962-.725-21.962-.725 19.217-.362 54.905-.725 57.65-.725 85.104 1.45 222.368-.362 299.236 1.45h329.437c13.72 0 24.7 0 38.43.362-13.73 0-27.45.362-41.18.362H835.884ZM923.729 95.28c87.851-1.088 170.211-1.088 263.551-.363 32.94.362 60.39.725 90.59 1.087-13.73.362-30.2.362-43.92.725H978.634c-19.217 0-35.689-.363-54.905-.725 10.981 0 24.707 0 35.688-.362-10.981 0-21.962-.363-35.688-.363Zm118.051 0c-8.24 0-19.22 0-27.46.362 5.49 0 10.98.362 13.73.362 10.98 0 19.22 0 30.2-.362-5.49-.363-10.98-.363-16.47-.363ZM388.402 40.935c137.264.724 271.782-.725 395.32.724-129.028 0-258.056.363-387.085.363-129.028 0-263.546.724-389.83-.363 131.774-.362 260.802-.724 381.595-.724ZM1478.28 173.899h282.76c13.73 0 30.2.362 43.93.362-19.22 0-35.69.362-54.91.362h-238.84c-96.08 0-194.91-.362-288.25.725-19.22.362-76.87.362-79.61-.725-2.75-1.087 41.18-.724 74.12-.724h260.8Zm496.9-41.665c104.32 0 227.86.362 348.65.362-118.05 1.087-244.33.362-367.87.362-137.26 0-274.53 0-409.05-.362 134.52-1.087 274.53 0 428.27-.362Zm-584.74 119.197h326.69c13.73 0 30.2.362 43.92.362-10.98 0-21.96.363-32.94.363h-675.34c-10.98 0-24.71-.363-35.69-.363 16.47 0 32.95-.362 49.42-.362h323.94ZM951.184 140.929h263.546c16.47 0 32.94.363 52.16.725-21.96.362-41.18.725-63.14.725-38.43-1.812-98.83.362-156.48-.363-49.417-.362-123.539-.362-189.426-.362h-197.66c-13.726 0-24.708 0-38.434-.362 13.726 0 27.453-.363 41.179-.363 96.085-.362 192.17 0 288.255 0Zm-653.369 8.334H37.014c-10.981 0-24.708-.363-35.689-.363 10.981 0 19.217-.362 30.198-.362 68.632-.362 118.047-1.087 208.642-.362 82.358.724 211.386.362 318.452.362 19.217 0 35.689.362 54.906.362-19.217 0-38.434.363-57.651.363H297.815Zm793.385 94.198H808.432c-19.217 0-38.434-.363-57.651-.363 16.472 0 32.944-.362 49.415-.362h370.614c68.63 0 145.5.725 205.9-.362 2.74 0 46.66.362 57.65.724 27.45.725-21.97.725-38.44.725-101.57-.362-203.15-.362-304.72-.362Zm-197.672-17.029c-118.047-1.086-255.311-.724-387.084-.724-5.491 0-16.472-.362-13.726-.362 2.745-.363 10.981-.363 16.471-.363h172.953c46.67 0 87.849-1.087 140.009 0 16.472.363 79.613-.362 104.321 0 49.415.725 85.108-1.811 129.028 0 2.75 0 2.75.363 0 .363-52.16.362-104.321.724-161.972 1.086ZM1994.4 99.99c-129.03-.363-249.82.362-359.63-.725 115.3 0 230.6-.363 343.16-.363 115.3 0 236.09-.724 345.9.363-112.55.362-227.85.362-329.43.724Zm-680.83-40.578c-13.73 0-27.46.362-38.44.362-68.63 0-142.75-.362-203.15.725-10.98.362-65.89.362-82.358 0-57.651-1.087-109.811-1.087-167.462 0-10.981-.363-27.453-.363-27.453-.725s13.726-.724 19.217-.724h480.426c8.23-.363 13.72 0 19.22.362ZM646.463 21.008H962.17c-101.576 1.087-214.132.362-323.943.362-120.793 0-244.33 0-365.123-.362 115.302-.724 244.33.362 373.359 0ZM325.265 33.326h-192.17c-41.179 0-82.358 0-123.537-.362 30.198-1.087 93.339 0 120.792-.725 65.887-1.086 120.792 0 183.934 0 112.556 0 227.858 0 340.414.363-112.556 1.449-233.348.362-329.433.724ZM2008.11 230.418c-101.57 0-214.13-.363-329.43-.363 112.56-1.087 230.6-.362 345.91-.362 115.3 0 227.85 0 343.16.362-109.82 1.087-230.61 0-359.64.363ZM286.826 110.496h238.84c16.471 0 30.198.725 46.669.725-21.962.362-46.669.725-65.886.725-74.123-.363-142.755-.725-222.368-.725-90.594 0-192.17.725-277.273-.362 93.339 0 186.679-.363 280.018-.363Zm57.653-67.75h282.764c10.981 0 21.962.362 35.689.362-10.981 0-24.708.363-32.944.363-60.396-.363-120.792 1.449-181.188 0H56.225c-16.472 0-32.944-.363-49.415-.363 16.471-.362 35.688-.362 54.905-.362 93.34-.362 186.679 0 282.764 0ZM2002.62 163.03h-282.76c-13.73 0-27.45-.362-41.18-.362 19.22-.363 52.16-1.087 60.4-1.087 178.44 1.449 367.86.362 549.05.724h21.97c5.49 0 16.47.363 13.72.363-2.74.362-10.98.362-16.47.362h-304.73ZM1140.61 19.558c-98.83 0-197.664-.362-299.239-.362 96.085-1.087 203.149-.363 304.729-.363 90.59 0 183.93.363 266.29-.724 2.74 0 35.69.362 38.43.724 2.75.363-16.47.725-24.7.725h-285.51Zm-79.62 142.385c-57.65.362-129.025 1.449-153.732 1.087-115.302-1.449-238.84-.362-354.141-.725H487.23c-13.726 0-27.453-.362-41.179-.362 13.726 0 24.707-.362 38.434-.362h543.565c8.24 0 19.22.362 32.94.362Zm-439.241 84.778c-63.142 0-118.047-.362-175.698-.362 46.67-1.087 112.556-.362 167.462-.362 115.302-.362 233.349-.725 351.396-.725h65.891c5.49 0 16.47 0 13.72.363-2.74.362-8.23.362-13.72.362-137.269.362-274.533.362-409.051.724Zm491.401 35.506c90.6 0 189.43.362 291 .362-96.08 1.087-203.15.363-301.98.363-115.298 0-227.855 0-343.156-.363 107.066-1.087 227.858 0 354.136-.362Zm-815.341 1.811c-90.594 0-192.169-.362-291-.362 96.085-1.087 200.406-.362 301.981-.362 115.302 0 230.604 0 343.16.362-109.811.725-230.603-.362-354.141.362ZM1585.35 227.52h-582c-32.947 0-76.871.362-76.871-.725h582.001c30.2-.362 76.87-.362 76.87.725ZM522.922 154.334c-5.49 0-13.726.363-19.217.363H284.083c-38.434 1.811-101.575 0-153.736.362-19.217 0-54.905-.362-82.358-.362-16.472 0-27.453-.363-41.18-.363 13.727 0 24.708-.362 38.434-.362h461.208c5.49 0 10.981 0 16.471.362ZM168.78 38.76H37.007c-13.727 0-32.944-.362-32.944-.724 0-.363 19.217-.725 32.944-.725H319.77c10.981 0 21.962.362 35.688.362-10.981 0-19.217.363-32.943.363-68.632.362-131.773.724-153.736.724Zm664.355 28.26c-13.726 0-30.198.363-35.688.363-52.161-.725-82.359 1.087-145.5.362-49.415-.362-123.538-.362-186.679-.362H292.315c-5.491 0-16.472-.363-13.726-.363 2.745-.362 10.981-.362 13.726-.362h521.603c2.746 0 10.981.362 19.217.362ZM1969.69 266.647h-263.55c-10.98 0-21.96-.362-35.69-.362 10.98 0 21.96-.362 35.69-.362h546.31c10.98 0 21.96.362 35.69.362-10.98 0-21.96.362-35.69.362h-282.76Zm-1045.949-4.709c49.415 0 118.049.362 183.929.725 13.73 0 21.97.362 30.2.724-13.72 0-24.7.362-38.43.362-76.87 0-150.991.001-222.369-.724-46.669-.362-120.792.724-164.717-.725 63.142 0 126.283 0 211.387-.362ZM385.664 122.452c-104.321 0-197.66-.362-291-.362 87.849-1.087 186.679-.363 280.019-.363 107.066 0 214.131 0 321.197.363-101.575 1.087-216.877-.363-310.216.362ZM278.592 259.764h98.83c19.217 0 38.434.362 57.651.362-16.471.363-30.198.725-52.16 1.087-16.472.363-46.67.363-60.396 0-87.849-1.087-170.208-.362-258.057 0-16.471 0-38.433 0-57.65-.362 13.726 0 27.452-.362 38.433-.362 74.123-1.087 161.972-.725 233.349-.725Zm-24.706 28.622H56.226c-19.218 0-65.887.362-35.69-.725 10.982-.362 46.67-.724 60.397-.724 123.538.724 247.075.724 370.613 0 13.726 0 49.415.362 60.396.724 30.198.725-16.472.725-35.689.725H253.886ZM1612.8 136.22h241.59c8.23 0 27.45.362 24.7.724-13.72.363-43.92 1.087-49.41.725-142.76-1.449-296.49-.362-444.74-.725-19.21 0-38.43-.362-57.65-.362 21.96 0 43.93-.362 68.63-.362h216.88Zm2.75 156.151c85.1 0 178.44.362 269.03.362-87.85 1.087-186.68.362-280.02.362-107.06 0-214.13 0-321.19-.362 104.32-1.087 216.87 0 332.18-.362ZM910.004 77.527c-98.83-.362-200.405.363-288.254-.724 93.34 0 186.679-.362 277.273-.362 93.34 0 192.167-.725 282.767.362-93.34.362-183.937.724-271.786.724Zm392.576 211.946c-96.08-.362-194.91.725-282.76-.724 93.34 0 186.68-.363 277.27-.363 93.34 0 192.17-.724 280.02.363-93.34.362-183.94.362-274.53.724Zm-35.69-267.016c-65.89-.362-161.97.725-230.6-.724-8.24 0-10.98-.363-16.47-.363 13.72 0 27.45-.362 38.43-.362 63.14.362 126.28 1.812 192.17 0 57.65 1.087 129.03.725 197.66.725 16.47 0 30.2.362 43.92.362-10.98 0-24.7.362-35.68.362h-189.43ZM179.762 222.809c-10.981 0-46.67 0-79.613-.362-5.49 0 5.49-.725 8.236-1.449h-87.85c-5.49 0-16.47-.363-13.726-.363 5.49 0 13.727-.362 21.963-.362h153.735c32.944 0 30.198 0 10.981.725-2.745 0 10.982.724 19.217.724h109.812c10.981 0 19.217.363 27.452.363-10.981 0-24.707.362-35.688.362-35.689.362-74.123.362-134.519.362ZM1917.52 295.27h-129.03c-38.43-.363-71.37-.725-107.06-1.087 32.94 0 68.63-.362 101.57-.362h172.96c21.96 0 41.18.724 63.14 1.086-19.22 0-35.69.363-57.65.363-16.47.362-30.2 0-43.93 0ZM797.46 208.318c-87.849-.363-181.189.362-260.802-.725 85.104 0 170.208-.362 255.311-.362 85.104 0 178.443-.725 258.061.362-85.108.362-170.212.362-252.57.725Zm796.12-7.247c-96.08 0-181.18-.362-266.29-.362 79.62-1.087 172.95-.362 258.06-.362 85.1 0 170.21 0 255.31.362-79.61 1.087-172.95 0-247.08.362ZM1475.54 2.53c46.67.363 107.06-.361 145.5.363-43.93.363-87.85.725-131.78.725-46.67 0-96.08.362-145.5.362-21.96 0-41.18-.724-60.39-1.087 21.96 0 41.18-.362 63.14-.362 41.18-.362 85.1 0 129.03 0Zm381.59 173.905c19.22 0 68.64 0 118.05.362-38.43 1.087-98.83.362-148.24.362-90.6 0-181.19 0-263.55.725-13.73 0-38.44 0-57.65-.362 13.72 0 27.45-.363 38.43-.363 85.1-1.449 186.68-.724 312.96-.724Zm85.1-61.953c-87.85-.363-181.19.362-260.8-.725 85.1 0 170.21-.362 255.31-.362s178.44-.725 258.06.362c-87.85.725-172.96.725-252.57.725ZM509.193 239.837c-8.236 0-68.632-.362-126.283-.724-10.981 0-21.962-.363-30.198-.363 10.981 0 24.707-.362 32.943-.362 101.576.362 203.151.725 301.981.725 5.491 0 10.981 0 16.472.362-10.981 0-21.962.362-32.944.362H509.193ZM1667.7 93.106c-65.89 0-137.27-.362-208.64-.362 65.88-1.087 142.75-.363 214.13-.363 85.1 0 170.21 0 255.31.363-79.61.724-172.95-.363-260.8.362ZM863.335 229.693h194.915c13.73 0 27.45.362 43.92.362-10.98 0-21.96.362-32.94.362H657.439c-10.981 0-24.708-.362-35.689-.362 16.472 0 30.198-.362 46.67-.362h194.915Zm8.237-182.6h74.122c32.944.363 93.336-.724 96.086.363 0 .362-76.869.724-120.793 1.087-19.217 0-43.925-.725-68.632-.725-60.396-.362-123.538-.362-186.679-.362 65.886-.725 145.5 0 205.896-.363ZM684.895 197.449c-79.613-.363-164.717.362-236.094-.725 76.868 0 156.481-.362 233.349-.362 76.867 0 161.971-.725 233.349.362-76.868.362-153.736.362-230.604.725Zm-337.664 73.184c-65.887 0-137.264-.362-208.641-.362 65.887-1.087 142.754-.363 214.132-.363 85.103 0 170.207 0 255.311.363-79.613 1.087-170.208 0-260.802.362Zm700.049-147.819H937.47c-19.217 0-38.434-.362-57.651-.362 16.472-.362 32.944-.724 54.906-.724 32.943-.363 87.845-.363 98.835 0 46.66 1.086 107.06.724 161.97.724 13.72 0 24.7.362 35.69.362-10.99 0-19.22.363-30.2.363-52.16 0-101.58-.363-153.74-.363Zm400.8-29.346c79.61 0 148.25.362 219.62.362-65.88 1.087-142.75.362-214.13.362-68.63 0-140.01 0-211.38-.362 60.39-1.087 142.75.362 205.89-.362ZM1321.8 232.954c-71.38-.362-150.99.362-214.13-.725 71.37 0 142.75-.362 211.38-.362 71.38 0 148.25-.362 211.39.362-68.63.363-140.01.363-208.64.725ZM303.302 51.441c-5.49 0-13.726.363-16.471.363-87.849-.363-156.481 1.087-241.585.724-16.472 0-30.198-.362-46.67-.362 13.727-.362 27.453-1.087 43.925-1.087H281.34c8.236 0 16.472.362 21.962.362Zm-79.615-31.158c-71.378-.362-150.99.362-216.877-.724 71.377 0 142.754-.363 211.386-.363 71.377 0 148.245-.362 214.132.363-68.632.362-140.009.724-208.641.724ZM1299.84 239.837h150.99c19.21 0 30.19.725 46.67.725-21.97.362-43.93.725-65.89.725-30.2 0-60.4-.363-90.6-.725-46.67-.362-107.06.362-142.75-.362 46.67-.363 96.08-.363 101.58-.363ZM824.904 98.178H649.206c-10.981 0-21.962-.362-35.688-.362 10.981 0 21.962-.363 35.688-.363h370.614c10.98 0 21.96.363 35.69.363-10.98 0-21.96.362-35.69.362H824.904ZM1697.9 7.603c60.39 0 123.53.362 186.68.362-54.91 1.087-129.03.363-192.17.363-76.87 0-156.48 0-233.35-.363 71.37-.724 159.22 0 238.84-.362ZM50.734 210.491c-5.49 0-24.708 0-43.924-.362 19.216 0 41.179-.362 57.65-.362 10.982 0 21.963-.363 21.963-.725 2.745-1.449 71.377-.725 109.811-1.087 2.745 0 10.981.362 13.726.362-54.905.363-8.236 2.174-104.32 1.812-8.236 0-24.708.362-54.906.362ZM1308.07 6.154h153.74c10.98 0 21.96.362 35.69.362-10.98 0-21.96.362-35.69.362h-326.69c-10.98 0-21.96-.362-35.69-.362 10.98 0 21.97-.362 35.69-.362h172.95Zm-120.79 179.701c-54.91 0-112.56-.363-167.46-.363 46.67-1.086 112.55-.362 170.2-.362 68.64 0 140.01 0 211.39.362-63.14.725-142.75-.362-214.13.363Zm-54.91-159.413h153.74c10.98 0 21.96.362 35.68.362-10.98 0-21.96.363-35.68.363H959.417c-10.981 0-21.962-.363-35.688-.363 10.981 0 21.962-.362 35.688-.362h172.953ZM407.625 61.948H253.89c-10.981 0-21.962-.363-35.689-.363 10.981 0 21.962-.362 35.689-.362h326.688c10.981 0 21.962.362 35.689.362-10.981 0-21.962.363-35.689.363H407.625ZM1659.46 283.676c54.91 0 118.05.362 181.19.362-54.9 1.087-129.03.362-192.17.362-63.14 0-126.28 0-189.42-.362 54.9-.725 129.03 0 200.4-.362Zm216.88-51.446c-71.38 0-134.52-.363-197.66-.363 54.91-1.087 129.03-.362 192.17-.362 63.14 0 126.28 0 189.42.362-54.9.725-129.02-.362-183.93.363ZM866.09 18.11c-68.632-.725-142.755.362-197.66-.725 63.141 0 126.283-.363 189.424-.363 63.141 0 137.264-.724 192.166.363-63.138.362-126.279.362-183.93.724Zm831.82 14.492h21.96c41.18 0 82.36 0 123.54.362-30.2 1.087-85.11.362-126.29.362-32.94 0-63.14.362-96.08.362-19.22 0-46.67-.362-60.4-.724-21.96-.362-13.72-.725 30.2-.725 35.69.363 71.38.363 107.07.363ZM1168.07 44.92h-150.99c-16.47 0-30.195-.362-43.922-.362 24.708-.363 49.412-.725 76.872-.725 21.96 0 49.41.362 74.12.362 46.67.363 107.06-.362 145.5.363-49.42.362-96.09.362-101.58.362ZM185.25 244.91c-41.179.362-74.122.724-109.81 1.087-27.454 0-79.614.362-71.378-.725 5.49-.362 41.18-1.449 54.906-1.449 41.179 0 79.613.725 126.282 1.087ZM1376.7 119.191c-65.88-.362-131.77.363-178.44-.724 54.91 0 112.56-.362 167.46-.362 57.65 0 123.54-.725 170.21.362-57.65.362-115.3.724-159.23.724Zm197.67-36.23c-24.7 0-52.16-.362-76.87-.362 24.71 0 49.42-.362 74.13-.362 19.21 0 38.43-.363 54.9-.363-16.47 0-38.43-.362-52.16-.362-10.98 0-13.72-.362-19.21-.725h101.57c13.73 0 16.47.725 16.47 1.45-5.49 1.087-63.14.362-98.83.724ZM382.916 251.431c-43.925 0-101.576-.362-156.481-.362 49.415-1.087 115.301-.363 170.207-.363 54.906 0 112.556 0 167.462.363-46.67.724-112.556 0-181.188.362Zm112.559 11.594c-65.887-.362-131.774.362-181.189-.725 54.906 0 112.557-.362 167.462-.362 57.651 0 123.538-.725 170.208.362-54.906.363-109.812.725-156.481.725Zm-387.09.725h150.99c43.925 0 52.161.362 30.198.724-13.726.362-38.434.725-60.396.725-24.707 0-49.415-.363-74.122-.363-49.415-.362-107.066.363-148.245-.362 46.67-.724 96.084-.724 101.575-.724ZM715.101 71.367c-65.886-.362-131.773.363-178.443-.724 54.906 0 112.557-.362 167.462-.362 57.651 0 123.538-.725 170.208.362-57.651.362-112.557.362-159.227.724ZM308.786 99.99c-8.236 0-16.472.362-24.708.362-74.123-1.087-148.245-1.087-225.113 0-5.49-.362-10.981-.362-13.726-.725-2.746-.362 0-.362 0-.724 85.103 0 170.207 0 258.056.362 2.745 0 2.745.362 5.491.725Zm293.749-31.158c41.179 0 90.594.362 140.009.362-41.179 1.087-98.83.362-148.245.362-63.141 0-126.283 0-189.424-.362 54.906-1.087 129.028 0 197.66-.362ZM215.45 297.081c-5.49 0-13.726.362-19.217.362-52.16 0-96.085 0-137.264.725-8.236 0-35.689-.362-54.906-.362 41.18-.363 41.18-1.087 2.746-1.812 10.98 0 27.453-.362 35.688-.362 49.415.724 93.34 1.811 156.481 1.449h16.472ZM163.293 2.53c-57.651 0-107.066-.362-153.735-.362 38.434-1.087 98.83-.362 148.245-.362 63.141 0 126.283 0 189.424.362-54.906 1.087-131.773-.362-183.934.363ZM1835.17.357c-27.45.362-54.9.362-57.65.362-60.4-1.087-134.52-.362-203.15-.725-10.98 0-21.96-.362-35.69-.362 13.73 0 24.71-.362 35.69-.362h194.92c13.72 0 27.45.362 65.88 1.087Zm-480.42 131.877h109.81c10.98 0 21.96.362 35.68.362-10.98 0-21.96.363-35.68.363h-238.84c-10.98 0-21.97-.363-35.69-.363 10.98 0 21.96-.362 35.69-.362h129.03Zm-595.728 7.608H649.211c-10.981 0-21.962-.362-35.689-.362 10.982 0 21.963-.363 35.689-.363h238.84c10.981 0 21.962.363 35.688.363-10.981 0-21.962.362-35.688.362H759.022ZM616.267 64.121v-.724c98.83.362 205.896-.363 299.235.362-98.83.362-197.66.362-299.235.362ZM1706.13 239.837h109.81c10.98 0 21.97.363 35.69.363-10.98 0-21.96.362-35.69.362H1577.1c-10.98 0-21.96-.362-35.68-.362 10.98 0 21.96-.363 35.68-.363h129.03Zm90.61-57.968c-63.14-.362-120.79.363-161.97-.724 49.41 0 98.83-.363 145.5-.363 49.41 0 107.06-.362 148.24.363-46.67.362-96.08.724-131.77.724Zm-1021.254-75.72H646.458c-8.236 0-16.472-.362-24.708-.362 5.491 0 10.981-.363 16.472-.363H912.75c5.49 0 13.726.363 13.726.363-5.491 0-13.726.362-21.962.362H775.486ZM171.529 267.735h-145.5c-5.49 0-13.726-.363-16.471-.363 0 0 8.236-.362 13.726-.362H130.35c41.179 0 96.085-.725 126.283.362-38.434 0-79.613 0-85.104.363Zm1287.531-1.812h-112.55c-10.99 0-19.22-.725-21.97-1.087 0 0 24.71-.362 35.69-.362 24.71 0 49.42.362 74.12.362 32.95 0 68.64.362 101.58.362-35.69.363-68.63.725-76.87.725Zm-189.42-4.71h-145.5c-5.49 0-13.73-.362-16.47-.362 0 0 8.23-.362 13.72-.362h107.07c41.18 0 96.08-.725 126.28.362-38.43.362-79.61.362-85.1.362Zm-395.319 0h-145.5c-5.49 0-13.726-.362-16.471-.362 0 0 8.235-.362 13.726-.362h107.066c41.179 0 96.085-.725 126.283.362-38.434.362-79.613.362-85.104.362Zm700.039-7.608h-87.85c-10.98 0-21.96-.362-35.68-.362 10.98 0 21.96-.362 35.68-.362h194.92c10.98 0 21.96.362 32.94.362-10.98 0-21.96.362-35.69.362h-104.32Zm-1229.872-8.333H242.913c-5.491 0-16.472-.362-13.727-.362 2.746-.363 8.236-.363 16.472-.363h87.849c49.415 0 96.085 0 145.5.363-41.179.724-101.576 0-134.519.362Zm-208.656-88.401H50.728c-16.471 0-30.198-.362-46.67-.362 10.982 0 21.963-.363 35.69-.363h192.169c10.981 0 21.962.363 32.943.363-8.236 0-13.726.362-21.962.362H135.832Zm554.559-55.795c57.651 0 96.085.362 137.264.362-30.198 1.087-85.103.363-126.282.363-41.18 0-82.359 0-123.538-.363 41.179 0 82.358 0 112.556-.362Zm96.08 7.971h-145.5c-5.491 0-13.727-.362-16.472-.362 0 0 8.236-.363 13.726-.363h107.066c41.18 0 96.085-.724 126.283.363-38.434.362-79.613.362-85.103.362Zm148.248-85.141h-65.887c-10.981 0-21.962-.362-35.688-.362 10.981 0 21.962-.362 32.943-.362h129.028c19.215 0 38.435.362 54.905.362-19.22 0-35.69.362-54.905.362h-60.396ZM1061 91.294H945.695c-5.491 0-16.472-.362-13.726-.362 2.745-.363 10.981-.363 16.471-.363h85.1c32.95 0 68.64 0 101.58.363-30.2 0-65.89.362-74.12.362Zm-222.368 68.837H728.821c-5.49 0-13.726-.362-16.471-.362 0 0 8.235-.362 13.726-.362h85.104c35.688 0 85.103-.725 104.32.362-32.943 0-65.886.362-76.868.362Zm398.068-1.449h-109.81c-8.24 0-13.73-.362-16.48-.362 0 0 8.24-.362 13.73-.362h85.1c35.69 0 82.36-.725 104.32.362-32.94 0-65.88.362-76.86.362ZM487.228 17.747H377.417c-5.491 0-13.726-.362-16.472-.362 0 0 8.236-.362 13.727-.362h85.103c35.689 0 82.359-.725 104.321.362-32.943.362-65.887.362-76.868.362Zm41.192-1.449h-65.886c-5.491 0-16.472-.362-13.727-.362 2.746-.363 8.236-.363 16.472-.363h65.887c41.179 0 82.358 0 123.537.362-32.943.725-85.103.363-126.283.363ZM220.947 89.12h65.887c5.49 0 16.471.363 13.726.363-2.745.362-8.236.362-16.472.362h-65.886c-41.18 0-82.359 0-123.538-.362 32.943-1.087 85.104-.362 126.283-.362Zm1293.023 0h-85.11c-8.23 0-13.72-.362-21.96-.362 10.98 0 21.96-.362 32.94-.362h126.29c19.21 0 38.43.362 54.9.362-21.96 0-43.92.362-68.63.362h-38.43ZM528.409 235.128h65.887c5.49 0 16.471.362 13.726.362-2.745.362-8.236.362-16.472.362h-65.886c-41.18 0-82.359 0-123.538-.362 32.943-.725 85.104-.362 126.283-.362Zm1227.141-89.851h115.3c5.49 0 16.47.363 13.73.363-2.75 0-10.98.362-16.47.362H1783c-32.94 0-68.63 0-101.57-.362 30.2 0 65.89 0 74.12-.363Zm-785.147 92.025H860.592c-8.236 0-13.727-.363-16.472-.363 0 0 8.236-.362 13.727-.362h85.103c35.689 0 85.1-.725 104.32.362-30.2.363-65.886.363-76.867.363ZM1719.87 48.905h-109.81c-8.24 0-13.73-.363-16.47-.363 0 0 8.23-.362 13.72-.362h85.11c35.69 0 85.1-.725 104.32.362-32.94 0-65.89.363-76.87.363ZM531.158 194.188H421.347c-8.236 0-13.727-.362-16.472-.362 0 0 8.236-.363 13.726-.363h85.104c35.689 0 82.359-.724 104.321.363-32.944 0-65.887.362-76.868.362Zm-109.81-96.735h-63.141c-16.472 0-30.198-.362-46.67-.362 10.981 0 21.962-.362 35.689-.362h126.283c19.217 0 35.688.362 54.905.362-13.726 0-27.453.362-43.924.362h-63.142ZM171.536 48.905h115.301c5.491 0 16.472.362 13.727.362-2.745.363-10.981.363-16.472.363h-85.104c-32.943 0-68.632 0-101.575-.363 32.943-.362 65.887-.362 74.123-.362ZM1500.25 187.304h-109.81c-8.24 0-13.73-.362-16.47-.362 0 0 8.23-.363 13.72-.363h85.11c35.69 0 85.1-.724 104.32.363-32.95 0-65.89 0-76.87.362Zm-485.92-135.5H904.522c-8.235 0-13.726-.363-16.471-.363 0 0 8.236-.362 13.726-.362h85.104c35.689 0 82.359-.724 104.319.362-30.2.363-65.89.363-76.87.363ZM547.634 181.869h-85.103c-8.236 0-13.727-.362-21.963-.362 10.981 0 21.963-.362 32.944-.362h126.283c19.217 0 38.434.362 54.905.362-21.962 0-43.924.362-68.632.362h-38.434Z"/><path d="M970.398 106.511h-32.944c-5.49 0-10.981 0-13.726-.362-2.745 0 0-.362 0-.362 68.632 0 140.012 0 208.642.362 2.74 0 8.23.362 8.23.362-2.74 0-8.23.363-13.72.363-35.69 0-71.38-.363-156.482-.363Zm-864.753 72.098h41.179c10.981 0 19.217.362 27.453.362-10.982 0-21.963.362-32.944.362-32.943.363-87.849-.362-96.085.725-13.726-.362-38.433-.362-41.179-.725-2.745-.362 8.236-.724 19.217-.724h82.359Zm27.447 37.317c27.452 0 57.651.362 85.103.724 13.727 0 27.453.362 41.18.362-10.982 0-24.708.363-35.689.363-46.67-.363-112.557.724-137.264-.725 16.472-.362 32.943-.724 46.67-.724Zm1279.298 80.068h-109.81c-8.23 0-13.72-.362-16.47-.362 0 0 8.24-.362 13.73-.362h85.1c35.69 0 82.36-.725 104.32.362-32.94.362-65.89.362-76.87.362Zm87.84-154.34h-115.3c-5.49 0-16.47-.362-13.73-.362 2.75-.363 10.98-.363 16.48-.363h85.1c32.94 0 68.63 0 101.57.363-30.19 0-63.14.362-74.12.362Zm-227.85 123.182-148.24 1.087c-2.75 0-19.22-.362-16.47-.362 10.98-.725 101.57-1.449 142.75-1.087 8.24 0 13.73.362 21.96.362ZM220.944 143.103c-71.377-.362-148.245.363-211.386-.362 71.377 0 142.754 0 211.386-.362v.724Zm749.465-10.869H860.598c-8.236 0-13.727-.362-16.472-.362 0 0 8.236-.362 13.726-.362h85.104c35.689 0 85.104-.725 104.324.362-30.2.362-65.89.362-76.871.362ZM1324.54 81.15h-109.81c-8.23 0-13.72-.362-16.47-.362 0 0 8.24-.363 13.73-.363h85.1c35.69 0 85.1-.724 104.32.363-32.94.362-65.89.362-76.87.362Zm-573.758-7.608H640.971c-8.236 0-13.727-.362-16.472-.362 0 0 8.236-.363 13.726-.363h85.104c35.689 0 85.104-.724 104.321.363-30.198 0-65.887.362-76.868.362Zm1010.268 4.709h65.89c5.49 0 16.47.362 13.73.362-2.75 0-8.24.363-16.48.363h-65.88c-41.18 0-82.36 0-123.54-.362 32.94-.725 85.1-.363 126.28-.363ZM627.25 34.05h43.924c13.727 0 21.963.363 32.944.363-10.981 0-21.963.362-32.944.362h-85.103c-19.217 0-38.434-.362-54.906-.362 19.217 0 35.689-.362 54.906-.362h41.179Zm848.29 230.424h-43.93c-8.23 0-10.98-.362-19.22-.362h159.23c-5.49 0-8.24.362-13.73.362h-82.35ZM377.427 180.058h-43.925c-8.236 0-10.981-.362-19.217-.362h161.972c-5.491 0-8.236.362-13.727.362h-85.103ZM67.205 30.066H23.28c-8.235 0-10.98-.362-19.217-.362h161.972c-2.745 0-5.491.362-10.981.362h-87.85ZM1121.4 299.98h-85.11c-5.49 0-16.47-.362-13.72-.362 2.74 0 10.98-.363 16.47-.363h63.14c27.45 0 52.16 0 79.61.363-27.45 0-52.16.362-60.39.362Zm131.76-252.162h-85.1c-5.49 0-16.47-.362-13.73-.362 2.75-.362 10.98-.362 16.47-.362h63.14c27.46 0 52.17 0 79.62.362-27.45.362-52.16.362-60.4.362Zm-568.269-2.174h-43.924c-8.236 0-10.981-.362-19.217-.362h161.972c-5.491 0-8.236.362-13.727.362h-85.104Zm282.777 55.07c8.236 0 24.708.363 43.922.363-16.469 0-32.941.362-52.157.362-10.982 0-21.963.362-35.689.362h-43.925c10.981-.362 19.217-.724 32.944-1.087 8.236-.362 27.453 0 54.905 0ZM371.926 205.781h-85.104c-5.491 0-16.472-.362-13.727-.362 2.746-.362 10.982-.362 16.472-.362h63.142c27.452 0 52.16 0 79.613.362-24.708 0-52.161.362-60.396.362ZM728.817 51.803h-43.924c-8.236 0-10.981-.362-19.217-.362h159.226c-5.491 0-8.236.362-13.726.362h-82.359ZM179.763 79.7h-41.179c-16.472 0-30.198-.362-46.67-.362 10.981-.362 21.962-.362 35.689-.362h85.103c19.217 0 35.689.362 52.161.362-13.727 0-27.453.363-41.179.363h-43.925Zm1207.927 23.912h43.92c8.24 0 10.99.363 16.48.363h-159.23c5.49 0 10.98-.363 16.47-.363h82.36ZM594.298 3.98h-85.104c-5.491 0-16.472-.363-13.726-.363 2.745 0 10.981-.362 16.471-.362h63.142c27.452 0 52.16 0 79.613.362-27.453 0-52.161.363-60.396.363ZM1739.08 156.87h85.1c5.49 0 16.47.363 13.73.363-2.75.362-10.99.362-16.48.362h-63.14c-27.45 0-52.16 0-79.61-.362 27.45 0 52.16 0 60.4-.363ZM737.061 91.294h-43.924c-13.727 0-21.962-.362-35.689-.362 10.981 0 21.963-.363 32.944-.363h85.103c19.217 0 38.434.363 54.906.363-19.217 0-35.689.362-54.906.362h-38.434ZM297.814 286.212H253.89c-13.727 0-21.963-.362-32.944-.362 10.981-.363 21.963-.363 32.944-.363h85.103c19.217 0 38.434.363 54.906.363-19.217 0-35.689.362-54.906.362h-41.179Zm779.666-133.689h43.92c8.24 0 10.98.363 16.47.363H975.902c5.491 0 10.982-.363 16.472-.363 27.456-.362 57.646 0 85.106 0Zm-1059.685-.362c-2.745 0-13.726 0-16.471-.362-2.746-.362 0-.725 2.745-.725 38.434 0 76.868 0 115.302-.362 5.49 0 13.726.362 13.726.362-5.49.363-13.726.363-21.962.363-30.198.362-60.396.724-93.34.724Zm93.336-84.054H67.206c-8.236 0-13.726-.362-19.217-.362h161.972c-5.491 0-8.236.362-13.727.362h-85.103Zm175.692 167.021h43.925c8.236 0 10.981.362 16.472.362H185.248c5.491 0 10.981-.362 16.472-.362h85.103Zm848.307-64.852h-43.93c-13.73 0-21.96-.362-32.94-.362 10.98 0 21.96-.363 32.94-.363h85.1c19.22 0 38.44.363 54.91.363-19.22 0-35.69.362-54.91.362h-41.17Zm-76.88-99.996h-63.143c-8.235 0-10.981-.362-16.471-.362h161.974c-5.49 0-8.24.363-13.73.363h-68.63Zm373.37 165.573h43.92c8.24 0 10.98.362 16.47.362h-161.97c5.49 0 10.98-.362 16.47-.362h85.11ZM67.206 61.948H23.28c-8.236 0-10.98-.363-16.471-.363H168.78c-5.49 0-10.981.363-16.472.363H67.206Zm603.968-38.766h43.924c13.726 0 21.962.362 35.689.362-10.982 0-21.963.362-32.944.362H632.74c-19.217 0-38.434-.362-54.906-.362 19.217 0 35.689-.362 54.906-.362h38.434ZM1750.07 264.474h-43.93c-13.73 0-21.96-.362-32.94-.362 10.98 0 21.96-.362 32.94-.362h85.1c19.22 0 38.44.362 54.91.362-19.22 0-35.69.362-54.91.362h-41.17ZM638.222 276.429c-2.746 0-8.236-.362-16.472-.724 27.453 0 52.16-.362 79.613-.362 13.727 0 24.708.362 38.434.362-24.707.362-49.415.362-101.575.724Zm1048.698-39.49c-21.96-.362-41.18-.362-57.65-.362 24.71 0 52.16-.362 76.87-.362 19.22 0 35.69.362 54.9.362-24.7 0-49.41 0-74.12.362Zm-697.29 31.52c-2.745 0-8.236-.362-16.472-.725 27.452 0 52.162-.362 79.612-.362 13.73 0 24.71.362 38.44.362-24.71.363-49.42.725-101.58.725Zm46.67 9.42c-24.71-.362-43.925-.362-63.142-.724 24.708 0 49.412-.363 76.872-.363 16.47 0 35.68.363 52.16.363-21.97.362-41.18.362-65.89.724ZM23.281 236.939c-2.745 0-8.236-.362-16.471-.724 27.452 0 52.16-.362 79.613-.362 13.726 0 24.707.362 38.434.362-24.708.362-52.16.362-101.576.724Zm263.551 41.665c-2.745 0-8.236-.363-16.472-.725 27.453 0 52.161-.362 79.613-.362 13.727 0 24.708.362 38.434.362-24.707.362-49.415.362-101.575.725Zm1268.318 15.217c30.2.362 46.67.362 65.89.362-19.22 0-38.44.362-60.4.362-19.22 0-38.43 0-57.65-.362 19.22 0 35.69-.362 52.16-.362ZM163.3 82.599c13.726.362 32.943.362 49.415.724-19.217 0-38.434.363-57.651.363-19.217 0-38.434-.363-57.65-.363 16.471-.362 35.688-.362 65.886-.724ZM418.597 221.36c-2.746 0-8.236-.362-16.472-.725 27.453 0 52.16-.362 79.613-.362 13.727 0 24.708.362 38.434.362-24.707.363-49.415.363-101.575.725Zm-263.535 71.011c-2.746 0-8.236-.362-16.472-.725 27.453 0 52.16-.362 79.613-.362 13.726 0 24.707.362 38.434.362-24.708.363-52.16.725-101.575.725Zm140.003 3.26c-30.198-.362-46.669-.362-65.886-.362 19.217 0 38.434-.362 60.396-.362 19.217 0 38.434 0 57.651.362-19.217 0-35.689 0-52.161.362Zm71.381-232.958c30.199.362 46.67.362 65.887.362-19.217 0-38.434.362-60.396.362-19.217 0-38.434 0-57.651-.362 19.217 0 35.689-.362 52.16-.362Zm-79.614 195.641c-2.745 0-8.236-.362-16.472-.724 27.453 0 52.161-.362 79.613-.362 13.727 0 24.708.362 38.434.362-24.707.724-49.415.724-101.575.724Zm694.559-2.173c-13.727-.362-32.944-.362-49.415-.725 19.217 0 38.433-.362 57.65-.362 19.214 0 38.434.362 57.654.362-16.47.363-35.69.363-65.889.725Z"/><path d="M89.167 216.651c-30.198 0-79.613.362-85.104-.725-2.745-.362 27.453-.725 41.18-1.087 13.726.362 30.197.362 43.924.725v1.087Zm812.602-2.899c-2.746 0-8.236-.363-16.472-.725 27.453 0 52.16-.362 79.613-.362 13.726 0 24.708.362 38.43.362-24.704.362-49.411.362-101.571.725ZM242.906 230.78c-2.745 0-8.236-.363-16.471-.725 27.452 0 52.16-.362 79.613-.362 13.726 0 24.707.362 38.434.362-24.708.362-49.415.362-101.576.725Zm702.793-18.84c-2.745 0-8.236-.362-16.471-.724 27.452 0 52.16-.362 79.612-.362 13.73 0 24.71.362 38.43.362-24.7.362-49.411.724-101.571.724Zm126.281 28.259c30.19 0 46.67.363 65.88.363-19.21 0-38.43.362-60.39.362-19.22 0-38.44 0-57.65-.362 16.47.362 35.68 0 52.16-.363Zm-126.281 25.362c-2.745 0-8.236-.362-16.471-.725 27.452 0 52.16-.362 79.612-.362 13.73 0 24.71.362 38.43.362-24.7.363-49.411.362-101.571.725ZM382.91 207.955c21.962.362 41.179.362 57.651.362-24.708 0-52.161.363-76.868.363-19.217 0-35.689-.363-54.906-.363 24.708 0 49.415-.362 74.123-.362ZM58.97 163.754c30.198.363 46.67.363 65.887.363-19.217 0-38.434.362-60.397.362-19.216 0-38.433 0-57.65-.362 19.216 0 35.688 0 52.16-.363Zm1240.87-40.578c-2.75 0-8.24-.362-16.47-.724 27.45 0 52.16-.362 79.61-.362 13.73 0 24.71.362 38.43.362-24.7.362-52.16.362-101.57.724Zm-785.153 17.029c-30.198-.362-46.669-.362-65.886-.362 19.217 0 38.434-.363 60.396-.363 19.217 0 38.434 0 57.651.363-19.217 0-35.689 0-52.161.362Zm-192.175 0c-21.962-.362-41.179-.362-57.651-.362 24.708 0 52.161-.363 76.868-.363 19.217 0 35.689.363 54.906.363-24.708 0-49.415 0-74.123.362ZM75.449 176.073c21.962.362 41.179.362 57.651.362-24.708.362-52.16.725-76.868.725-19.217 0-35.689-.363-54.906-.363 24.708-.362 49.415-.362 74.123-.724ZM23.28 124.626c-2.746 0-8.237-.362-16.472-.724 27.452 0 52.16-.362 79.613-.362 13.726 0 24.707.362 38.434.362-24.708.362-52.16.724-101.576.724Zm617.698 53.983c-5.491 0-21.962-.362-21.962-.362 8.235-.363 16.471-.725 32.943-1.087 5.491 0 35.689.362 52.16.362-21.962.362-41.179.725-63.141 1.087Zm689.062-168.47c-19.21-.362-35.68-.362-52.16-.362 27.46 0 54.91-.363 82.36-.363 13.73 0 30.2.363 43.93.363-24.71 0-49.42.362-74.13.362ZM97.4 181.145c-19.216-.363-35.688-.363-52.16-.363 27.453 0 54.906-.362 82.359-.362 13.726 0 30.198.362 43.924.362-21.962 0-46.67 0-74.122.363Zm1422.06-34.781c-2.75 0-8.24-.362-16.47-.724 27.45 0 52.16-.363 79.61-.363 13.73 0 24.71.363 38.44.363-24.71.362-52.16.362-101.58.724Zm-140.01-1.087c30.2.363 46.67.363 65.89.363-19.22 0-38.43.362-60.4.362-19.21 0-38.43 0-57.65-.362 19.22 0 35.69 0 52.16-.363Zm-829.07-24.274c-2.745 0-8.236-.362-16.472-.724 27.453 0 52.161-.363 79.613-.363 13.727 0 24.708.363 38.434.363-24.707.362-49.415.362-101.575.724Zm661.61 41.665c-2.74 0-8.23-.363-16.47-.725 27.46 0 52.16-.362 79.62-.362 13.72 0 24.7.362 38.43.362-24.71.362-52.16.362-101.58.725Zm-837.307-48.911c-2.746 0-8.236-.362-16.472-.725 27.453 0 52.16-.362 79.613-.362 13.726 0 24.708.362 38.434.362-24.708.363-49.415.725-101.575.725Zm1312.247 26.81c30.2.363 46.67.363 65.89.363-19.22 0-38.44.362-60.4.362-19.22 0-38.43 0-57.65-.362 19.22 0 35.69 0 52.16-.363Zm-291.01-96.734c21.96.362 41.17.362 57.65.362-24.71 0-52.16.363-76.87.363-19.22 0-35.69-.363-54.91-.363 24.71 0 46.67 0 74.13-.362ZM23.281 45.282c-2.745 0-8.236-.362-16.471-.725 27.452 0 52.16-.362 79.613-.362 13.726 0 24.707.362 38.434.362-24.708.363-52.16.363-101.576.725Zm933.401-3.623c13.726.362 32.943.362 49.418.724-19.22 0-41.183.363-57.654.363-21.962 0-38.434-.363-57.651-.363 16.472-.362 35.689-.724 65.887-.724ZM1417.88 1.082c-19.21-.363-35.68-.363-52.16-.363 27.46 0 54.91-.362 82.36-.362 13.73 0 30.2.362 43.93.362-24.71 0-49.42 0-74.13.363Zm101.59 125.356c-24.71-.363-43.93-.363-63.15-.725 24.71 0 49.42-.362 76.87-.362 16.47 0 35.69.362 52.16.362-19.21 0-41.18.362-65.88.725ZM295.065 185.492c13.727.362 32.944.362 49.415.725-19.216 0-41.179.362-57.65.362-19.217 0-38.434-.362-57.651-.362 19.217-.363 35.688-.725 65.886-.725Zm1136.545-1.086c-2.74 0-8.23-.363-16.47-.725 27.46 0 52.16-.362 79.62-.362 13.72 0 24.7.362 38.43.362-24.71.362-52.16.362-101.58.725Zm225.12-79.706c-27.46-.363-46.67-.363-65.89-.363 19.22 0 38.43-.362 60.4-.362 19.21 0 38.43 0 57.65.362-16.48-.362-35.69 0-52.16.363Zm-296.5 158.325c-16.47-.363-27.46-.363-38.44-.363 19.22 0 35.69-.362 54.91-.362 10.98 0 21.96.362 32.94.362-19.22 0-35.69.363-49.41.363ZM860.592 68.832c32.943.362 46.67.362 57.651.362-13.727 0-24.708.362-38.434.362-10.981 0-24.708 0-35.689-.362 5.491 0 13.727-.362 16.472-.362ZM86.42 4.704H23.28c-5.491 0-10.982-.362-16.472-.362 19.217 0 38.434-.363 57.65-.363 5.491 0 13.727.363 21.963.725Zm1013.01 68.475h-63.14c-5.49 0-10.98-.363-16.47-.363 19.21 0 38.43-.362 57.65-.362 5.49.362 10.98.725 21.96.725ZM237.411 261.938c-38.433 0-60.396.363-74.122.363-13.727 0-21.962-.363-30.198-.725h41.179c16.472 0 30.198 0 63.141.362Zm373.365-2.173c13.726 0 32.943.362 49.415.362-10.981 0-21.962.362-32.944.362-19.217 0-35.688-.362-54.905-.362 10.981 0 21.962 0 38.434-.362ZM904.522 3.98c-2.745 0-10.981-.362-16.471-.725 10.981 0 24.707-.362 35.688-.362 13.727 0 24.708.362 38.434.362-13.726.363-24.707.725-57.651.725Zm-74.124 30.07c13.726 0 32.943.363 49.415.363-10.981 0-21.962.362-32.944.362-19.216 0-35.688-.362-54.905-.362 10.981 0 21.962-.362 38.434-.362Zm883.982 17.029h-63.14c-5.49 0-10.98-.362-16.47-.362 19.22 0 38.43-.363 57.65-.363 5.49 0 13.73.363 21.96.725ZM437.824 49.268h-63.141c-5.491 0-10.982-.363-16.472-.363 19.217 0 38.434-.362 57.651-.362 5.49.362 13.726.725 21.962.725Zm291.002-5.798c-2.745 0-10.981-.362-16.472-.724 10.982 0 24.708-.362 35.689-.362 13.727 0 24.708.362 38.434.362-13.726.362-24.707.362-57.651.725Zm189.427-28.621c13.727 0 32.944.362 49.415.362-10.981 0-21.962.362-32.943.362-19.217 0-35.689-.362-54.906-.362 10.981-.362 21.963-.362 38.434-.362ZM706.85 276.792c16.472 0 27.453.363 38.434.363-21.962 0-41.179.362-63.141.362-5.491 0-13.727-.362-19.217-.362 13.726 0 30.198-.363 43.924-.363Zm-365.118 3.986h-60.397c-2.745 0 0-.363 0-.363h57.651c0-.362 0 0 2.746.363ZM525.664 64.846h-63.142c-5.49 0-10.981-.362-16.471-.362 19.217 0 38.434-.362 57.651-.362 5.49 0 13.726.362 21.962.724ZM1061 286.936c-8.23.363-16.47.725-24.71.725-8.23-.362-21.96-.362-19.21-.725 2.74-.362 13.72-.724 19.21-1.087 5.49.363 13.73.725 24.71 1.087Zm433.76-262.305h-63.15c-5.49 0-10.98 0-16.47-.362 19.22 0 38.44-.362 57.65-.362 5.49 0 10.98.362 21.97.724Zm-19.23 2.173c32.94.363 46.67.363 57.65.363-13.73 0-24.71.362-38.43.362-10.98 0-24.71 0-35.69-.362 8.23.362 13.72 0 16.47-.363ZM270.359 302.516c-19.217-.363-30.198-.363-43.924-.725 19.217 0 35.688-.362 54.905-.362 10.981 0 19.217.362 30.198.362-13.726.362-27.453.362-41.179.725Zm16.469-210.497c35.689.362 46.67.362 57.651.362-13.726 0-24.707.362-38.434.362-10.981 0-35.688 0-32.943-.362 2.745 0 10.981-.362 13.726-.362Zm-60.391 44.925c16.471.362 27.452.362 38.433.362-19.217 0-35.688.363-54.905.363-10.981 0-21.962-.363-32.944-.363 16.472 0 35.689-.362 49.416-.362Zm104.32 60.504c-2.745 0-10.981-.362-16.472-.725 10.981 0 24.708-.362 35.689-.362 13.726 0 24.707.362 38.434.362-10.981.363-21.963.363-57.651.725ZM553.13 180.42c-2.745 0-8.236-.362-16.472-.724 10.981 0 24.708-.363 35.689-.363 13.726 0 24.707.363 38.434.363-13.727.362-24.708.362-57.651.724Zm-203.157-73.547c-10.981.362-16.471.725-21.962.725-19.217 0-38.434 0-57.651-.363 5.491 0 10.981-.362 16.472-.362h63.141Zm900.457 131.153h-87.85c-2.74 0-5.49-.362-8.24-.362H1212c8.23-.363 13.72 0 38.43.362Zm112.55-27.897h-63.14c-5.49 0-10.98-.362-16.47-.362 19.21 0 38.43-.363 57.65-.363 5.49.363 10.98.363 21.96.725ZM912.763 177.16h-60.396c-2.746 0 0-.362 0-.362h57.651c2.745-.363 2.745 0 2.745.362Zm-691.817-34.781c19.217-.362 35.689-.362 54.906-.724 10.981.362 21.962.362 32.943.724h-87.849Zm1449.504-23.912c-10.98.362-16.47.724-21.96.724-19.22 0-38.43 0-57.65-.362 5.49 0 10.98-.362 16.47-.362h63.14ZM635.472 205.419h-87.849c-2.746 0-5.491-.362-8.236-.362h57.651c5.49 0 13.726 0 38.434.362ZM198.977 97.453c-2.746 0-8.236-.362-16.472-.362 10.981 0 24.707-.362 35.689-.362 16.471 0 27.452.362 38.433.362-10.981.362-21.962.362-57.65.362Zm38.434 54.708c-38.433 0-60.396.362-74.122.362-13.727 0-21.962-.362-30.198-.725h41.179c16.472 0 30.198 0 63.141.363ZM1426.13 89.483h-87.85c-2.75 0-5.49-.362-8.24-.362h57.65c8.24 0 16.47 0 38.44.362Zm-238.85 140.21h-87.85c19.22-.362 35.69-.362 54.91-.724 10.98.362 21.96.362 32.94.724ZM86.423 96.729c-10.981.362-16.472.724-21.963.724-19.216 0-38.433 0-57.65-.362 5.49 0 10.98-.362 16.471-.362h63.142ZM39.76 185.492c13.726 0 32.943.362 49.414.362-10.981 0-21.962.363-32.943.363-19.217 0-35.689-.363-54.906-.363 10.981 0 21.962 0 38.434-.362Zm664.352.363c-10.981.362-16.472.724-21.962.724-19.217 0-38.434 0-57.651-.362 5.491 0 10.981-.362 16.472-.362 19.217-.362 38.434 0 63.141 0Zm507.878-1.812c-2.74 0-10.98-.362-16.47-.725 10.98 0 24.71-.362 35.69-.362 13.73 0 24.71.362 38.43.362-10.98.725-24.7.725-57.65.725Zm-332.187 1.812c-10.982.362-16.472.724-21.963.724-19.217 0-38.434 0-57.651-.362 5.491 0 10.982-.362 16.472-.362 19.217-.362 38.434 0 63.142 0ZM369.182 80.063c-38.434 0-60.396.362-74.123.362-13.726 0-21.962-.362-30.198-.725h41.18c16.471 0 30.198.363 63.141.363ZM174.277 81.15h-63.141c-5.491 0-10.981-.362-16.472-.362 19.217 0 38.434-.363 57.651-.363 5.491 0 13.726.363 21.962.725Zm441.994 31.882c-10.981.362-16.471.725-21.962.725-19.217 0-38.434 0-57.651-.363 5.491 0 10.981-.362 16.472-.362h63.141Zm-241.588 75.721c-2.746 0-8.236-.362-16.472-.724 10.981 0 24.707-.362 35.689-.362 13.726 0 24.707.362 38.434.362-10.982.362-21.963.724-57.651.724ZM1352 182.594h-60.4c-2.74 0 0-.362 0-.362h57.65c2.75-.363 2.75 0 2.75.362ZM262.118 164.479h-63.141c-5.491 0-10.982-.362-16.472-.362 19.217 0 38.434-.363 57.651-.363 5.49.363 13.726.363 21.962.725Zm178.449-61.591c16.472 0 27.453.362 38.434.362-21.962 0-41.179.363-63.141.363-5.491 0-13.727-.363-19.217-.363 16.471 0 32.943-.362 43.924-.362Zm-170.206-.725c16.472.362 27.453.362 38.434.362-19.217 0-35.688.363-54.905.363-10.981 0-21.963-.363-32.944-.363 16.472-.362 35.689-.362 49.415-.362ZM1459.06 158.32c-21.96 0-41.18.362-60.39.362-10.98 0-21.96-.362-32.95-.362 19.22 0 35.69-.362 54.91-.362 8.24 0 21.96 0 38.43.362Zm-848.286 86.952c-16.472-.362-27.453-.362-38.434-.362 19.217 0 35.688-.363 54.905-.363 10.982 0 21.963.363 32.944.363-16.472 0-32.944 0-49.415.362Zm908.686-120.646c-2.75 0-8.24-.362-16.47-.724 10.98 0 24.71-.362 35.69-.362 13.72 0 24.7.362 38.43.362-10.98.362-24.71.724-57.65.724ZM349.973 135.133h-63.141c-5.491 0-10.981-.362-16.472-.362 19.217 0 38.434-.363 57.651-.363 5.491.363 13.727.363 21.962.725ZM1371.21 85.86c16.47.362 27.45.362 38.43.362-19.21 0-35.69.363-54.9.363-10.98 0-21.96-.363-32.95-.363 16.48 0 32.95-.362 49.42-.362ZM182.506 190.202c16.472.362 27.453.362 38.434.362-19.217 0-35.689.363-54.906.363-10.981 0-21.962-.363-32.943-.363 16.472 0 32.943-.362 49.415-.362Zm1531.874-66.3c-10.98.362-16.47.724-21.96.724-19.22 0-38.43 0-57.65-.362 5.49 0 10.98-.362 16.47-.362h63.14Zm-82.37 119.197c-19.21-.363-30.19-.363-43.92-.725 19.22 0 35.69-.362 54.91-.362 10.98 0 19.21.362 30.19.362-13.72.362-24.7.362-41.18.725ZM86.423 93.468H23.28c-5.49 0-10.98-.362-16.471-.362 19.216 0 38.433-.362 57.65-.362 5.491 0 13.727.362 21.963.724Zm743.964 77.17c-5.49 0-10.981.362-16.471.362-5.491 0-10.981-.362-13.727-.362 0 0 8.236 0 13.727-.362 5.49 0 10.981.362 16.471.362ZM23.286 166.29c5.49 0 10.98.362 13.726.362 0 0-8.236 0-13.726.363-5.49 0-10.981-.363-13.727-.363-2.745-.362 8.236-.362 13.727-.362Zm1070.654-6.521c-5.49 0-10.98.362-16.47.362-5.49 0-13.73-.362-13.73-.362 2.75 0 8.24-.362 13.73-.362s10.98 0 16.47.362ZM37.006 113.394c-5.49 0-10.981.363-16.472.363-5.49 0-10.981-.363-13.726-.363 0 0 8.236 0 13.726-.362 8.236 0 13.726.362 16.472.362Zm735.74-86.952c5.49 0 13.726.363 13.726.363-5.491 0-13.726.362-19.217.362-5.49 0-13.726-.362-19.217-.362 8.236 0 16.472-.363 24.708-.363ZM94.664 113.394c5.491 0 10.981-.362 16.472-.362 5.49 0 13.726.362 13.726.362-2.745.363-8.236.363-13.726.363-5.491 0-10.981-.363-16.472-.363Zm925.156 51.809c5.49 0 10.98-.362 16.47-.362 5.49 0 13.72.362 13.72.362-2.74.362-8.23.362-13.72.362s-10.98-.362-16.47-.362Zm609.45-137.674c-10.98 0-19.22.362-30.2.362-2.74 0-10.98 0-13.72-.362 10.98 0 19.21-.363 30.19-.363 2.75 0 8.24.363 13.73.363ZM822.16 183.318c-8.236 0-19.217-.362-27.453-.362 5.491 0 10.981-.362 13.726-.362 10.982 0 19.217 0 30.199.362-8.236 0-10.982 0-16.472.362ZM462.528 34.05c5.491 0 10.981.363 13.727.363 0 0-8.236 0-13.727.362-5.49 0-10.981-.362-13.726-.362 0 0 8.236-.362 13.726-.362Zm367.859 147.095c-5.49 0-10.981.362-16.471.362-5.491 0-13.727-.362-13.727-.362 2.746-.363 8.236-.363 13.727-.363 5.49.363 10.981.363 16.471.363ZM1184.53 32.24c-5.49 0-10.98.362-13.72.362-8.24 0-16.48-.363-27.46-.363 8.24-.362 13.73-.362 21.97-.362 5.49 0 13.72 0 19.21.362Zm-925.153-2.537c-5.491 0-10.981.362-16.472.362-5.49 0-13.726-.362-13.726-.362 2.745-.362 8.236-.362 13.726-.362 5.491.362 8.236.362 16.472.362Zm527.101 145.283c-5.49 0-10.981.362-16.471.362-5.491 0-13.727-.362-13.727-.362 2.746-.362 8.236-.362 13.727-.362 5.49.362 10.981.362 16.471.362Zm-104.322-.363c5.491 0 10.981.363 13.726.363 0 0-8.235 0-13.726.362-5.49 0-10.981-.362-13.726-.362 0 0 8.236 0 13.726-.363Zm-334.929.725c-5.49 0-10.981.362-16.471.362-5.491 0-10.981-.362-13.727-.362 0 0 8.236 0 13.727-.363 5.49 0 10.981 0 16.471.363Zm1054.193-65.939c-5.49 0-10.99.363-16.48.363s-13.72-.363-13.72-.363c2.74-.362 8.23-.362 13.72-.362s10.99.362 16.48.362Zm-348.66 63.403c-5.49.362-10.98.362-13.72.362-8.24 0-16.47-.362-27.46-.362 5.49 0 13.73-.362 19.22-.362 8.24 0 16.47.362 21.96.362Zm568.28-60.142c-5.49 0-10.98.362-16.47.362-5.5 0-10.99-.362-13.73-.362 0 0 8.23 0 13.73-.362 8.23 0 13.72.362 16.47.362ZM1255.92 9.414c-5.49 0-13.73-.362-19.22-.362h27.46c8.23 0 8.23.362 13.72.724-8.23-.362-13.72-.362-21.96-.362Zm356.88.725c-8.24 0-19.22-.362-27.45-.362 5.49 0 10.98-.363 13.72-.363 10.98 0 19.22 0 30.2.363-5.49 0-10.98 0-16.47.362ZM61.712 138.393c8.236 0 19.217 0 27.453.363-5.49 0-10.981.362-13.727.362-10.98 0-19.217 0-30.198-.362 5.49 0 8.236 0 16.472-.363ZM1181.79 13.037c-5.49 0-10.98.362-16.47.362-5.49 0-10.98-.362-13.72-.362 0 0 8.23 0 13.72-.362 5.49 0 10.98 0 16.47.362ZM1343.76-.006c-5.49 0-13.73-.362-19.22-.362H1352c8.23 0 8.23.362 13.72.724-8.23-.362-13.72-.362-21.96-.362ZM440.567 2.168c-10.981 0-19.217.363-30.198.363-2.745 0-8.236 0-13.726-.363 10.981 0 19.217-.362 30.198-.362 2.745 0 8.236 0 13.726.362Zm27.459 127.893c5.491 0 10.981.362 16.472.362-10.981 0-19.217.362-30.198.362-2.746 0-8.236 0-13.727-.362 10.981-.362 19.217-.362 27.453-.362Zm274.522-.001c-5.491 0-10.981.362-16.472.362-5.491 0-13.726-.362-13.726-.362 2.745-.362 8.235-.362 13.726-.362 5.491.362 10.981.362 16.472.362Zm746.712 5.073c-5.49 0-10.99.362-16.48.362s-10.98-.362-13.72-.362c0 0 8.23 0 13.72-.362 8.24 0 13.73 0 16.48.362Zm131.78-.362c-5.49 0-10.98.362-16.47.362-5.5 0-13.73-.362-13.73-.362 2.74-.363 8.23-.363 13.73-.363 5.49.363 10.98.363 16.47.363ZM1006.1 6.516c-5.49 0-10.981.362-16.471.362-5.491 0-13.727-.362-13.727-.362 2.746 0 10.981 0 13.727-.362 5.49 0 10.981.362 16.471.362Zm-713.786 9.057c5.491 0 10.981.362 16.472.362-10.981 0-19.217.363-30.198.363-2.746 0-8.236 0-13.727-.362 8.236 0 19.217-.363 27.453-.363ZM1621.04 157.595c-5.49 0-10.98.363-16.47.363-5.5 0-10.99-.363-13.73-.363 0 0 8.23 0 13.73-.362 8.23 0 13.72 0 16.47.362Zm-790.653.363c-5.49 0-10.981.362-16.471.362-5.491 0-13.727-.362-13.727-.362 2.746 0 8.236-.363 13.727-.363 5.49.363 10.981.363 16.471.363Zm79.619.362c-8.236 0-19.217 0-27.453-.362 5.49 0 10.981-.363 13.726-.363 10.981 0 19.217 0 30.198.363-5.49.362-10.981.362-16.471.362ZM1524.96 18.471c-8.24 0-19.22 0-27.45-.362 5.49 0 10.98-.362 13.72-.362 10.98 0 19.22 0 30.2.362-5.49.362-10.98.362-16.47.362Zm87.84 0c-8.24 0-19.22 0-27.45-.362 5.49 0 10.98-.362 13.72-.362 10.98 0 19.22 0 30.2.362-5.49.362-10.98.362-16.47.362ZM1041.79 158.32c-8.24 0-19.22 0-27.46-.362 5.49 0 10.99-.363 13.73-.363 10.98 0 19.22 0 30.2.363-5.49.362-10.98.362-16.47.362Zm85.09-138.037c5.49 0 13.73.362 13.73.362-5.49 0-13.73.363-19.22.363-5.49 0-13.73-.363-19.22-.363 8.24 0 16.47-.362 24.71-.362Zm-927.9.725c5.491 0 10.981.362 13.727.362 0 0-8.236 0-13.727.363-5.49-.363-10.981-.363-13.726-.725h13.726Zm1114.59 92.386c-5.5 0-10.99.363-16.48.363s-10.98-.363-13.72-.363c0 0 8.23 0 13.72-.362 5.49 0 10.98.362 16.48.362Zm-452.982 8.696c-5.491 0-13.726-.363-19.217-.363h27.453c8.236 0 8.236.363 13.726.725-8.236-.362-13.726-.362-21.962-.362Zm321.202 23.912c-5.49 0-10.98.362-16.47.362-5.49 0-10.98-.362-13.72-.362 0 0 8.23 0 13.72-.363 5.49 0 10.98 0 16.47.363Zm57.65 0c5.49 0 10.98-.363 16.47-.363 5.49 0 13.72.363 13.72.363-2.74.362-8.23.362-13.72.362-5.49-.362-10.98-.362-16.47-.362ZM28.778 121.365c-8.236 0-19.217 0-27.453-.362 5.49 0 10.981-.363 13.727-.363 10.98 0 19.217 0 30.198.363-5.49 0-10.981.362-16.472.362ZM6.81 15.935c5.49 0 10.98-.362 16.471-.362 5.49 0 10.981.362 13.727.362 0 0-8.236 0-13.727.363-5.49 0-10.98-.362-16.471-.362Zm208.636 0c-5.49 0-10.981.363-16.472.363-5.49 0-10.981-.362-13.726-.362 0 0 8.236 0 13.726-.363 5.491 0 10.982.362 16.472.362ZM1346.5 279.328c5.49 0 13.73.362 13.73.362-5.49 0-13.73.363-19.22.363-5.49 0-13.73-.363-19.22-.363 8.24-.362 16.48-.362 24.71-.362Zm-686.307-1.448c-8.236 0-16.471.362-24.707.362-2.746 0-10.981-.362-8.236-.362 8.236 0 21.962-.363 32.943 0ZM1269.63 65.933c-5.49 0-10.98.362-16.47.362-5.49 0-13.72-.362-13.72-.362 2.74-.362 8.23-.362 13.72-.362 5.49.362 10.98.362 16.47.362ZM424.095 233.678c5.491 0 10.982.363 16.472.363-10.981 0-19.217.362-30.198.362-2.745 0-8.236 0-13.726-.362 8.235-.363 19.217-.363 27.452-.363Zm186.676.363c-5.49 0-10.981.362-16.471.362-5.491 0-10.981-.362-13.727-.362 0 0 8.236 0 13.727-.363 5.49 0 10.981.363 16.471.363ZM1228.46 88.758c-5.49 0-13.73.362-13.73.362-8.24 0-16.47-.362-27.45-.362 5.49 0 13.72-.362 19.21-.362 8.24 0 16.48 0 21.97.362Zm30.2 147.819c5.49 0 13.73.362 13.73.362-5.49 0-13.73.362-19.22.362-5.49 0-13.73-.362-19.22-.362 8.24 0 16.47 0 24.71-.362ZM303.302 69.194c-5.491 0-10.982.362-16.472.362-5.491 0-13.726-.362-13.726-.362 2.745-.363 8.235-.363 13.726-.363 5.49 0 8.236.363 16.472.363Zm969.078 22.462c-5.49 0-13.72.363-13.72.363-8.24 0-19.22-.363-27.46-.363 5.49 0 13.73-.362 19.22-.362 8.24 0 16.47.362 21.96.362ZM418.601 224.984c5.491 0 10.982.362 13.727.362 0 0-8.236 0-13.727.362-5.49 0-10.981-.362-13.726-.362 0 0 8.236-.362 13.726-.362ZM874.318 61.585c-5.49 0-10.981.363-16.471.363-5.491 0-10.982-.363-13.727-.363 0 0 8.236 0 13.727-.362 5.49 0 10.981.362 16.471.362Zm57.659 227.526c5.49 0 10.981-.362 16.471-.362 5.491 0 13.727.362 13.727.362-2.746.362-8.236.362-13.727.362-5.49-.362-10.981-.362-16.471-.362Zm-469.449-62.679c5.491 0 10.981.362 13.727.362 0 0-8.236 0-13.727.363-5.49 0-10.981-.363-13.726-.363 0 0 8.236 0 13.726-.362Zm27.449-163.397c5.49 0 10.981-.363 16.471-.363 5.491 0 10.981.363 13.727.363 0 0-8.236 0-13.727.362-5.49 0-10.981-.362-16.471-.362Zm107.074.362c-5.491 0-13.726-.362-19.217-.362h27.453c8.236 0 8.236.362 13.726.724-8.236-.362-16.472-.362-21.962-.362ZM1623.77 227.882c-5.49 0-10.98.362-13.73.362-8.23 0-16.47-.362-27.45-.362 5.49 0 13.73-.363 19.22-.363 8.23 0 16.47 0 21.96.363Z"/><path d="M1211.99 91.294c-5.49 0-13.72-.362-19.21-.362h27.45c8.24 0 8.24.362 13.73.725-8.24-.363-13.73-.363-21.97-.363ZM358.216 64.846c5.49 0 10.981-.362 16.471-.362 5.491 0 13.727.362 13.727.362-2.745.362-8.236.362-13.727.362-5.49-.362-10.981-.362-16.471-.362ZM28.778 228.968c-8.236 0-19.217 0-27.453-.362 5.49 0 10.981-.362 13.727-.362 10.98 0 19.217 0 30.198.362-5.49 0-10.981 0-16.472.362ZM616.267 64.484c-8.235 0-16.471.363-24.707.363-2.745 0-10.981-.363-8.236-.363 8.236 0 21.962-.362 32.943 0Zm612.193 165.571c-5.49 0-13.73.362-13.73.362-8.23 0-16.47-.362-27.45-.362 5.49 0 13.73-.362 19.22-.362 8.23 0 16.47.362 21.96.362ZM37.006 280.416c-5.49 0-10.981.362-16.472.362-5.49 0-10.981-.362-13.726-.362 0 0 8.236 0 13.726-.363 8.236 0 13.726.363 16.472.363ZM6.808 83.323c5.49 0 10.98-.362 16.471-.362 5.49 0 13.727.362 13.727.362-2.746 0-8.236.363-13.727.363-5.49-.363-10.98-.363-16.471-.363Zm323.948 162.674c5.49 0 10.981.362 13.726.362 0 0-8.236 0-13.726.362-5.491 0-10.981-.362-13.727-.362 0-.362 8.236-.362 13.727-.362Zm851.034 1.811c-5.49 0-10.98.362-16.47.362-5.49 0-13.72-.362-13.72-.362 2.74-.362 8.23-.362 13.72-.362s10.98.362 16.47.362Zm-680.835 12.681c-5.491 0-10.981-.362-16.472-.362 10.982 0 19.217-.362 30.198-.362 2.746 0 8.236 0 13.727.362-8.236.362-19.217.362-27.453.362ZM37.008 248.895c-5.49 0-10.982.363-16.472.363-5.49 0-10.981-.363-13.726-.363 0 0 8.235 0 13.726-.362 8.236 0 13.726 0 16.472.362ZM1577.11 78.614c-5.49 0-10.98.362-16.47.362-5.49 0-10.98-.362-13.73-.362 0 0 8.24 0 13.73-.362 8.24 0 13.73.362 16.47.362ZM748.045 270.271c-8.236 0-16.472.362-27.453.362-2.745 0-10.981-.362-8.236-.362 10.981-.363 24.708-.363 35.689 0Zm653.375-32.607c-5.49 0-10.99.362-16.48.362s-13.72-.362-13.72-.362c2.74 0 8.23-.363 13.72-.363 5.49.363 10.99.363 16.48.363Zm123.54.362c-8.24 0-19.22-.362-27.46-.362 5.5 0 10.99-.363 13.73-.363 10.98 0 19.22 0 30.2.363-5.49.362-10.98.362-16.47.362Zm-356.9-149.992c-5.49 0-13.72-.363-19.21-.363h27.45c8.24 0 8.24.363 13.73.725-8.24-.362-13.73-.362-21.97-.362Zm-293.736 179.7c-5.49 0-10.981.363-16.472.363-5.49 0-13.726-.363-13.726-.363 2.745-.362 8.236-.362 13.726-.362 5.491.362 10.982.362 16.472.362ZM155.05 239.113c5.49 0 10.981.362 13.726.362 0 0-8.236 0-13.726.362-5.491 0-10.981-.362-13.727-.362 0-.362 8.236-.362 13.727-.362Zm-126.272.724c5.49 0 10.981.363 16.472.363-10.981 0-19.217.362-30.198.362-2.746 0-8.236 0-13.727-.362 8.236 0 19.217-.363 27.453-.363ZM303.302 72.092c-5.491 0-10.982.363-16.472.363-5.491 0-13.726-.363-13.726-.363 2.745 0 8.235-.362 13.726-.362 5.49.362 8.236.362 16.472.362ZM1711.63 243.098c-5.49 0-10.98.362-13.73.362-8.23 0-16.47-.362-27.45-.362 5.49 0 13.73-.362 19.22-.362 8.23.362 16.47.362 21.96.362Zm-32.95-171.006c5.49 0 10.98-.362 16.47-.362 5.49 0 10.98.362 13.73.362 0 0-8.24 0-13.73.363-5.49 0-10.98 0-16.47-.363ZM1612.8 202.52c-8.24 0-19.22-.362-27.45-.362 5.49 0 10.98-.362 13.72-.362 10.98 0 19.22 0 30.2.362-5.49 0-10.98.362-16.47.362ZM569.594 97.815c-5.49 0-10.981.363-13.726.363-8.236 0-16.472-.363-27.453-.363 5.491 0 13.726-.362 19.217-.362 8.236 0 13.726.362 21.962.362ZM37.006 205.419c-5.49 0-10.981.362-16.472.362-5.49 0-10.981-.362-13.726-.362 0 0 8.236 0 13.726-.362 8.236 0 13.726.362 16.472.362Zm705.542-101.444c-5.491 0-10.981.362-16.472.362H712.35c2.745-.362 8.235-.362 13.726-.362 5.491-.362 10.981 0 16.472 0Zm-538.074 84.054c5.491 0 10.981.362 16.472.362-10.981 0-19.217.362-30.198.362-2.745 0-8.236 0-13.727-.362 8.236 0 19.217-.362 27.453-.362Zm1474.206 5.796c5.49 0 10.98-.362 16.47-.362 5.49 0 13.73.362 13.73.362-2.75.362-8.24.362-13.73.362s-10.98-.362-16.47-.362Zm-1419.303.725c-5.491 0-10.981.362-16.472.362-5.49 0-13.726-.362-13.726-.362 2.745-.362 8.236-.362 13.726-.362 5.491 0 8.236 0 16.472.362Zm1023.993-93.836c5.49 0 10.98-.362 16.47-.362 5.49 0 10.98.362 13.73.362 0 0-8.24 0-13.73.362-5.49 0-10.98 0-16.47-.362ZM26.026 98.903c-5.49 0-13.726-.363-19.216-.363h27.452c8.236 0 8.236.363 13.727.725-10.981-.362-16.472-.362-21.962-.362ZM1151.6 56.876c5.49 0 10.98-.363 16.47-.363 5.49 0 10.98.363 13.72.363 0 0-8.23 0-13.72.362-5.49 0-10.98-.362-16.47-.362Zm-378.852 1.811c-5.49 0-13.726-.362-19.217-.362h27.453c8.236 0 8.236.362 13.726.724-8.235-.362-16.471-.362-21.962-.362ZM89.165 214.839c13.726.362 30.198.362 43.925.725H89.165v-.725ZM37.006 59.412c-5.49 0-10.981.362-16.472.362-5.49 0-10.981-.362-13.726-.362 0 0 8.236 0 13.726-.362 8.236 0 13.726 0 16.472.362Zm398.067 0c-5.49 0-10.981.362-16.472.362-5.49 0-10.981-.362-13.726-.362 0 0 8.236 0 13.726-.362 5.491 0 10.982 0 16.472.362Zm76.863-.362c5.491 0 10.981.362 16.472.362-10.981 0-19.217.362-30.198.362-2.745 0-8.236 0-13.727-.362 10.982-.362 19.217-.362 27.453-.362Zm845.554 32.606c-5.49 0-10.98.363-16.47.363-5.49 0-13.73-.363-13.73-.363 2.75 0 8.24-.362 13.73-.362s10.98 0 16.47.362ZM610.771 59.412c-5.49 0-10.981.362-16.471.362-5.491 0-10.981-.362-13.727-.362 0 0 8.236 0 13.727-.362 5.49 0 10.981 0 16.471.362Zm922.419 163.035c-5.49 0-10.98.362-16.48.362-5.49 0-10.98-.362-13.72-.362 0 0 8.23 0 13.72-.363 8.24 0 10.99.363 16.48.363Zm90.58-15.579c-5.49 0-10.98.362-13.73.362-8.23 0-16.47-.362-27.45-.362 5.49 0 13.73-.362 19.22-.362 8.23 0 16.47.362 21.96.362ZM923.739 96.004c-10.981 0-24.707-.362-35.688-.362 10.981 0 24.707 0 35.688-.362v.724ZM786.478 213.027c-5.49 0-10.981.362-16.471.362-5.491 0-13.727-.362-13.727-.362 2.746-.362 8.236-.362 13.727-.362 5.49 0 10.981 0 16.471.362ZM1708.88 53.615c-5.49 0-10.98.362-16.47.362-5.49 0-13.73-.362-13.73-.362 2.75-.362 8.24-.362 13.73-.362 8.23.362 10.98.362 16.47.362Zm-894.964 160.5c5.49 0 10.981.362 13.726.362 0 0-8.236 0-13.726.362-5.491 0-10.981-.362-13.727-.362 0 0 8.236 0 13.727-.362Z"/></g><defs><clipPath id="a"><rect width="1687" height="302" rx="10" fill="#fff"/></clipPath></defs></svg>